<?xml version="1.0" encoding="utf-8"?>
<!-- Generator: Adobe Illustrator 27.5.0, SVG Export Plug-In . SVG Version: 6.00 Build 0)  -->
<svg version="1.1" xmlns="http://www.w3.org/2000/svg" xmlns:xlink="http://www.w3.org/1999/xlink" x="0px" y="0px"
	 viewBox="0 0 3710 3710" style="enable-background:new 0 0 3710 3710;" xml:space="preserve">
<g id="Background">
	<g>
		<g>
			<rect style="fill:#FFFFFF;" width="3710" height="3710"/>
		</g>
	</g>
</g>
<g id="Illustration">
	<g>
		<linearGradient id="SVGID_1_" gradientUnits="userSpaceOnUse" x1="3588.321" y1="4033.6653" x2="1133.6964" y2="985.1754">
			<stop  offset="0" style="stop-color:#B37CFF"/>
			<stop  offset="1" style="stop-color:#F895E7"/>
		</linearGradient>
		<path style="opacity:0.3;fill:url(#SVGID_1_);" d="M2913.038,2831.451c-56.382,59.356-109.729,97.635-151.879,127.877
			c-495.455,355.494-1081.709,251.87-1206.305,226.563c-183.989-37.369-539.635-109.603-796.76-411.977
			c-389.01-457.467-328.435-1178.194-26.693-1653.956c55.193-87.025,346.741-570.034,939.31-647.493
			c358.616-46.877,776.648,47.669,1079.374,301.294C3385.536,1306.14,3340.299,2381.645,2913.038,2831.451z"/>
		<g>
			<g>
				<g>
					<path style="fill:#EAC4F9;" d="M512.616,1377.198c-1.358,0-2.634-0.836-3.128-2.186c-1.537-4.19-3.021-8.404-4.456-12.643
						c-0.589-1.742,0.345-3.633,2.089-4.223c1.744-0.594,3.632,0.346,4.223,2.089c1.415,4.184,2.883,8.345,4.4,12.483
						c0.633,1.728-0.254,3.641-1.981,4.275C513.386,1377.131,512.997,1377.198,512.616,1377.198z"/>
					<path style="fill:#EAC4F9;" d="M496.31,1324.205c-1.492,0-2.85-1.009-3.229-2.523c-2.098-8.387-4.02-16.958-5.708-25.474
						c-0.358-1.804,0.815-3.558,2.621-3.916c1.791-0.369,3.558,0.815,3.915,2.621c1.667,8.407,3.564,16.869,5.637,25.152
						c0.446,1.785-0.639,3.593-2.424,4.041C496.85,1324.172,496.578,1324.205,496.31,1324.205z M484.115,1257.252
						c-1.667,0-3.109-1.251-3.304-2.949c-0.996-8.595-1.789-17.342-2.364-25.998c-0.12-1.835,1.269-3.423,3.105-3.545
						c1.861-0.13,3.423,1.271,3.545,3.105c0.566,8.547,1.35,17.184,2.331,25.672c0.211,1.827-1.098,3.481-2.926,3.691
						C484.372,1257.245,484.243,1257.252,484.115,1257.252z M480.656,1189.283c-0.016,0-0.029,0-0.044,0
						c-1.84-0.024-3.312-1.534-3.289-3.374c0.112-8.685,0.439-17.458,0.969-26.078c0.114-1.835,1.677-3.26,3.53-3.12
						c1.837,0.112,3.234,1.693,3.12,3.53c-0.524,8.513-0.846,17.176-0.956,25.752
						C483.962,1187.819,482.475,1189.283,480.656,1189.283z M485.883,1121.453c-0.158,0-0.316-0.011-0.475-0.032
						c-1.82-0.26-3.087-1.947-2.829-3.769c1.223-8.592,2.674-17.251,4.314-25.738c0.348-1.809,2.102-2.983,3.902-2.64
						c1.807,0.35,2.988,2.097,2.64,3.902c-1.618,8.379-3.052,16.931-4.259,25.416
						C488.94,1120.253,487.515,1121.453,485.883,1121.453z M499.822,1054.863c-0.296,0-0.597-0.041-0.895-0.124
						c-1.773-0.493-2.809-2.331-2.316-4.103c2.328-8.36,4.893-16.758,7.624-24.965c0.582-1.744,2.46-2.697,4.213-2.108
						c1.746,0.581,2.689,2.468,2.108,4.213c-2.697,8.101-5.228,16.394-7.527,24.646
						C502.62,1053.896,501.281,1054.863,499.822,1054.863z M522.313,990.615c-0.434,0-0.877-0.086-1.301-0.267
						c-1.693-0.721-2.482-2.677-1.763-4.369c3.388-7.969,7.031-15.976,10.826-23.8c0.805-1.656,2.796-2.341,4.452-1.544
						c1.654,0.804,2.346,2.796,1.544,4.452c-3.748,7.725-7.345,15.631-10.689,23.498
						C524.841,989.853,523.609,990.615,522.313,990.615z M552.986,929.802c-0.574,0-1.156-0.148-1.687-0.46
						c-1.586-0.934-2.115-2.977-1.181-4.561c4.402-7.473,9.046-14.936,13.809-22.18c1.012-1.536,3.078-1.965,4.613-0.953
						c1.537,1.01,1.965,3.076,0.953,4.613c-4.701,7.153-9.289,14.521-13.633,21.9C555.239,929.217,554.128,929.802,552.986,929.802z
						 M591.259,873.494c-0.716,0-1.436-0.229-2.045-0.703c-1.453-1.131-1.713-3.224-0.582-4.675
						c5.324-6.837,10.889-13.633,16.544-20.202c1.199-1.394,3.301-1.552,4.698-0.351c1.394,1.201,1.552,3.304,0.351,4.698
						c-5.583,6.487-11.08,13.197-16.335,19.948C593.232,873.053,592.25,873.494,591.259,873.494z M636.445,822.596
						c-0.859,0-1.716-0.33-2.367-0.987c-1.295-1.308-1.285-3.418,0.023-4.711c6.155-6.095,12.545-12.117,18.99-17.9
						c1.37-1.231,3.476-1.117,4.704,0.254c1.23,1.37,1.116,3.476-0.254,4.704c-6.365,5.711-12.674,11.659-18.753,17.676
						C638.14,822.276,637.293,822.596,636.445,822.596z M687.778,777.938c-1.004,0-1.996-0.451-2.652-1.311
						c-1.116-1.462-0.835-3.553,0.628-4.669c6.878-5.246,13.983-10.395,21.121-15.302c1.518-1.043,3.59-0.659,4.631,0.857
						c1.043,1.516,0.659,3.59-0.857,4.631c-7.047,4.848-14.063,9.931-20.854,15.111
						C689.191,777.716,688.482,777.938,687.778,777.938z M744.403,740.267c-1.153,0-2.274-0.599-2.891-1.669
						c-0.917-1.596-0.369-3.632,1.225-4.55c7.514-4.325,15.218-8.511,22.901-12.441c1.641-0.839,3.647-0.189,4.483,1.448
						c0.838,1.638,0.19,3.645-1.448,4.483c-7.585,3.881-15.193,8.015-22.611,12.285
						C745.538,740.124,744.967,740.267,744.403,740.267z M1227.56,719.203c-0.47,0-0.948-0.099-1.402-0.311
						c-7.768-3.61-15.72-7.068-23.641-10.281c-1.705-0.691-2.526-2.635-1.835-4.34c0.693-1.705,2.637-2.525,4.34-1.835
						c8.021,3.253,16.077,6.757,23.943,10.414c1.669,0.774,2.393,2.756,1.617,4.425
						C1230.018,718.491,1228.816,719.203,1227.56,719.203z M805.386,710.247c-1.308,0-2.549-0.776-3.079-2.059
						c-0.704-1.7,0.104-3.649,1.804-4.351c7.989-3.307,16.165-6.456,24.298-9.36c1.731-0.613,3.639,0.285,4.259,2.017
						c0.618,1.734-0.285,3.641-2.017,4.259c-8.033,2.866-16.104,5.975-23.992,9.24C806.242,710.164,805.811,710.247,805.386,710.247
						z M1164.103,694.603c-0.332,0-0.669-0.05-1-0.155c-8.156-2.565-16.495-4.96-24.781-7.118c-1.781-0.464-2.848-2.284-2.385-4.064
						c0.464-1.781,2.281-2.855,4.064-2.385c8.394,2.188,16.84,4.613,25.1,7.21c1.755,0.552,2.731,2.422,2.18,4.177
						C1166.832,693.692,1165.518,694.603,1164.103,694.603z M869.753,688.397c-1.471,0-2.817-0.982-3.216-2.471
						c-0.477-1.776,0.578-3.603,2.356-4.08c8.36-2.242,16.895-4.306,25.368-6.134c1.806-0.381,3.572,0.756,3.959,2.554
						c0.389,1.799-0.755,3.571-2.554,3.959c-8.368,1.806-16.794,3.844-25.049,6.056
						C870.329,688.359,870.038,688.397,869.753,688.397z M1097.977,678.468c-0.19,0-0.385-0.016-0.581-0.051
						c-8.434-1.484-17.014-2.775-25.5-3.839c-1.825-0.228-3.12-1.893-2.891-3.72c0.229-1.825,1.874-3.122,3.72-2.891
						c8.594,1.077,17.284,2.385,25.825,3.888c1.812,0.319,3.022,2.046,2.704,3.859
						C1100.97,677.33,1099.565,678.468,1097.977,678.468z M936.467,675.086c-1.645,0-3.076-1.218-3.297-2.894
						c-0.242-1.824,1.039-3.497,2.865-3.74c8.576-1.139,17.306-2.079,25.946-2.795c1.846-0.174,3.442,1.212,3.595,3.045
						c0.151,1.833-1.212,3.444-3.045,3.595c-8.53,0.708-17.15,1.635-25.62,2.759C936.762,675.076,936.614,675.086,936.467,675.086z
						 M1030.307,671.035c-0.05,0-0.102-0.002-0.153-0.003c-7.393-0.333-14.904-0.512-22.325-0.535l-1.588-0.003l-1.879,0.003
						c-0.002,0-0.005,0-0.008,0c-1.836,0-3.327-1.485-3.331-3.323c-0.005-1.84,1.484-3.335,3.323-3.34l1.895-0.003l1.618,0.003
						c7.502,0.023,15.107,0.205,22.593,0.542c1.838,0.083,3.261,1.64,3.178,3.478
						C1033.55,669.641,1032.076,671.035,1030.307,671.035z"/>
					<path style="fill:#EAC4F9;" d="M1276.88,745.406c-0.584,0-1.176-0.153-1.714-0.477c-3.777-2.273-7.585-4.498-11.424-6.678
						c-1.601-0.908-2.16-2.941-1.253-4.542c0.908-1.599,2.939-2.162,4.542-1.253c3.888,2.206,7.745,4.46,11.571,6.762
						c1.576,0.948,2.085,2.996,1.137,4.573C1279.113,744.832,1278.01,745.406,1276.88,745.406z"/>
				</g>
				<g>
					<path style="fill:#EAC4F9;" d="M1516.792,1070.377c-1.498,0-2.858-1.017-3.232-2.538c-1.054-4.291-2.16-8.563-3.32-12.812
						c-0.483-1.775,0.563-3.606,2.338-4.091c1.773-0.49,3.605,0.561,4.091,2.338c1.173,4.304,2.295,8.631,3.362,12.978
						c0.439,1.786-0.654,3.59-2.442,4.029C1517.322,1070.346,1517.056,1070.377,1516.792,1070.377z"/>
					<path style="fill:#EAC4F9;" d="M994.615,1721.694c-0.024,0-0.049,0-0.075,0c-9.017-0.197-18.147-0.628-27.133-1.28
						c-1.837-0.133-3.216-1.729-3.083-3.564c0.135-1.835,1.749-3.205,3.564-3.083c8.875,0.646,17.892,1.07,26.798,1.266
						c1.838,0.039,3.297,1.563,3.258,3.403C997.904,1720.249,996.421,1721.694,994.615,1721.694z M1038.448,1720.856
						c-1.749,0-3.216-1.363-3.322-3.13c-0.111-1.838,1.288-3.416,3.125-3.527c8.883-0.537,17.866-1.309,26.702-2.297
						c1.812-0.22,3.475,1.111,3.68,2.939c0.205,1.83-1.111,3.478-2.939,3.681c-8.947,1-18.045,1.783-27.041,2.326
						C1038.583,1720.854,1038.516,1720.856,1038.448,1720.856z M924.091,1715.433c-0.171,0-0.345-0.013-0.519-0.041
						c-8.919-1.399-17.908-3.048-26.717-4.901c-1.799-0.379-2.952-2.146-2.573-3.946c0.379-1.801,2.141-2.956,3.946-2.573
						c8.696,1.828,17.57,3.457,26.375,4.839c1.819,0.285,3.061,1.989,2.775,3.806
						C927.122,1714.26,925.705,1715.433,924.091,1715.433z M1108.626,1711.865c-1.56,0-2.953-1.1-3.265-2.687
						c-0.356-1.804,0.818-3.556,2.624-3.912c8.726-1.723,17.524-3.696,26.147-5.866c1.785-0.441,3.595,0.631,4.044,2.417
						c0.449,1.784-0.633,3.595-2.417,4.044c-8.735,2.198-17.646,4.197-26.486,5.941
						C1109.057,1711.846,1108.839,1711.865,1108.626,1711.865z M855.057,1699.748c-0.317,0-0.639-0.046-0.958-0.142
						c-8.63-2.588-17.311-5.438-25.804-8.47c-1.732-0.62-2.635-2.526-2.017-4.259c0.618-1.731,2.525-2.632,4.259-2.017
						c8.384,2.995,16.957,5.809,25.476,8.363c1.763,0.529,2.764,2.386,2.235,4.148
						C857.815,1698.814,856.49,1699.748,855.057,1699.748z M1176.953,1693.497c-1.384,0-2.678-0.87-3.151-2.251
						c-0.597-1.74,0.329-3.636,2.069-4.233c8.412-2.887,16.862-6.033,25.116-9.352c1.706-0.693,3.647,0.142,4.334,1.848
						c0.686,1.707-0.142,3.647-1.848,4.334c-8.361,3.362-16.919,6.549-25.438,9.472
						C1177.677,1693.438,1177.311,1693.497,1176.953,1693.497z M788.786,1674.864c-0.462,0-0.93-0.096-1.378-0.299
						c-8.2-3.732-16.417-7.728-24.42-11.88c-1.633-0.848-2.271-2.858-1.423-4.491c0.846-1.633,2.857-2.272,4.491-1.423
						c7.903,4.099,16.015,8.046,24.111,11.73c1.675,0.761,2.416,2.738,1.653,4.411
						C791.261,1674.141,790.051,1674.864,788.786,1674.864z M1242.153,1666.056c-1.22,0-2.395-0.67-2.98-1.835
						c-0.826-1.643-0.164-3.646,1.479-4.472c7.946-3.998,15.883-8.249,23.594-12.638c1.604-0.913,3.631-0.348,4.543,1.248
						c0.909,1.599,0.351,3.632-1.248,4.543c-7.808,4.444-15.847,8.75-23.893,12.797
						C1243.167,1665.942,1242.656,1666.056,1242.153,1666.056z M1303.039,1630.099c-1.062,0-2.107-0.506-2.752-1.449
						c-1.04-1.518-0.652-3.592,0.867-4.631c7.33-5.02,14.631-10.302,21.7-15.698c1.462-1.113,3.554-0.836,4.67,0.626
						c1.116,1.464,0.836,3.554-0.626,4.67c-7.161,5.466-14.556,10.814-21.98,15.899
						C1304.342,1629.911,1303.688,1630.099,1303.039,1630.099z M1358.584,1586.294c-0.909,0-1.815-0.371-2.474-1.098
						c-1.233-1.365-1.126-3.471,0.239-4.706c6.595-5.957,13.129-12.171,19.421-18.47c1.302-1.301,3.411-1.3,4.713-0.002
						c1.301,1.301,1.301,3.411,0.002,4.713c-6.373,6.377-12.991,12.67-19.668,18.704
						C1360.178,1586.011,1359.38,1586.294,1358.584,1586.294z M1407.793,1535.445c-0.76,0-1.524-0.259-2.151-0.787
						c-1.404-1.189-1.58-3.291-0.392-4.696c5.759-6.808,11.408-13.843,16.791-20.91c1.114-1.462,3.203-1.75,4.669-0.631
						c1.464,1.114,1.747,3.205,0.631,4.669c-5.451,7.156-11.171,14.281-17.002,21.176
						C1409.68,1535.043,1408.74,1535.445,1407.793,1535.445z M1449.78,1478.457c-0.613,0-1.233-0.169-1.788-0.522
						c-1.552-0.991-2.007-3.05-1.018-4.602c4.791-7.505,9.448-15.239,13.845-22.984c0.911-1.597,2.948-2.157,4.542-1.253
						c1.601,0.908,2.16,2.943,1.253,4.542c-4.454,7.844-9.171,15.677-14.021,23.278
						C1451.957,1477.913,1450.88,1478.457,1449.78,1478.457z M1483.747,1416.328c-0.469,0-0.943-0.098-1.396-0.307
						c-1.671-0.771-2.399-2.751-1.627-4.421c3.732-8.08,7.305-16.376,10.624-24.659c0.682-1.708,2.616-2.543,4.332-1.853
						c1.708,0.685,2.538,2.624,1.853,4.332c-3.361,8.387-6.98,16.791-10.76,24.975
						C1486.21,1415.611,1485.006,1416.328,1483.747,1416.328z M1509.025,1350.151c-0.324,0-0.651-0.047-0.976-0.148
						c-1.76-0.537-2.749-2.399-2.211-4.16c2.601-8.509,5.015-17.196,7.172-25.821c0.447-1.784,2.261-2.874,4.041-2.424
						c1.784,0.447,2.869,2.256,2.424,4.041c-2.186,8.735-4.63,17.534-7.266,26.152
						C1511.77,1349.227,1510.449,1350.151,1509.025,1350.151z M1525.088,1281.244c-0.177,0-0.356-0.013-0.539-0.044
						c-1.815-0.294-3.048-2.006-2.752-3.823c1.428-8.784,2.647-17.718,3.623-26.553c0.202-1.827,1.854-3.131,3.678-2.946
						c1.828,0.203,3.148,1.85,2.946,3.678c-0.989,8.947-2.224,17.995-3.671,26.891
						C1528.107,1280.083,1526.694,1281.244,1525.088,1281.244z M1531.736,1210.811c-0.031,0-0.062,0-0.094-0.002
						c-1.838-0.05-3.287-1.583-3.237-3.422c0.119-4.322,0.185-8.657,0.198-13.005l0.003-1.601c0-4.08-0.047-8.146-0.14-12.203
						c-0.044-1.838,1.414-3.364,3.253-3.406c1.801-0.198,3.364,1.414,3.406,3.253c0.096,4.106,0.143,8.225,0.143,12.356l-0.003,1.63
						c-0.013,4.394-0.08,8.784-0.202,13.162C1535.014,1209.38,1533.534,1210.811,1531.736,1210.811z M1528.981,1140.09
						c-1.684,0-3.128-1.271-3.31-2.98c-0.937-8.851-2.118-17.793-3.509-26.579c-0.288-1.817,0.953-3.523,2.77-3.811
						c1.812-0.291,3.523,0.953,3.811,2.77c1.409,8.896,2.604,17.954,3.554,26.917c0.194,1.83-1.134,3.47-2.962,3.665
						C1529.215,1140.084,1529.098,1140.09,1528.981,1140.09z"/>
					<path style="fill:#EAC4F9;" d="M726.254,1641.115c-0.607,0-1.222-0.166-1.773-0.512c-3.782-2.385-7.528-4.817-11.244-7.292
						c-1.532-1.02-1.947-3.088-0.926-4.618c1.018-1.534,3.083-1.949,4.618-0.927c3.67,2.445,7.371,4.848,11.104,7.2
						c1.557,0.983,2.024,3.039,1.043,4.595C728.442,1640.566,727.36,1641.115,726.254,1641.115z"/>
				</g>
				<g>
					
						<linearGradient id="SVGID_00000040559287517830929370000015081540049506550188_" gradientUnits="userSpaceOnUse" x1="1089.6804" y1="4555.3716" x2="1902.1213" y2="4555.3716" gradientTransform="matrix(-0.0848 0.9964 -0.9964 -0.0848 5672.1763 84.4478)">
						<stop  offset="0" style="stop-color:#B37CFF"/>
						<stop  offset="1" style="stop-color:#F895E7"/>
					</linearGradient>
					<path style="fill:url(#SVGID_00000040559287517830929370000015081540049506550188_);" d="M742.001,1498.171
						c1.835,1.968,4.719,2.556,7.178,1.462l70.163-31.205c29.794,19.957,62.985,35.308,98.601,44.972l22.472,73.375
						c0.787,2.575,3.122,4.364,5.813,4.458l92.051,3.211c2.691,0.093,5.143-1.53,6.109-4.041l27.53-71.632
						c36.204-7.16,70.383-20.158,101.495-37.992l67.818,36.018c2.377,1.262,5.293,0.877,7.262-0.958l67.361-62.819
						c1.969-1.837,2.556-4.719,1.462-7.178l-31.204-70.162c19.957-29.794,35.307-62.986,44.971-98.602l73.376-22.472
						c2.574-0.788,4.364-3.122,4.458-5.812l3.211-92.052c0.094-2.69-1.529-5.143-4.043-6.108l-71.631-27.531
						c-7.159-36.204-20.157-70.383-37.991-101.495l36.018-67.819c1.262-2.376,0.877-5.293-0.958-7.261l-62.82-67.36
						c-1.836-1.97-4.718-2.555-7.178-1.462l-70.162,31.205c-29.793-19.959-62.985-35.308-98.602-44.972l-22.472-73.377
						c-0.789-2.573-3.122-4.363-5.812-4.458l-92.053-3.21c-2.689-0.095-5.142,1.529-6.108,4.042l-27.53,71.631
						c-36.203,7.158-70.383,20.158-101.496,37.992l-67.817-36.018c-2.377-1.264-5.295-0.878-7.263,0.958l-67.36,62.82
						c-1.968,1.836-2.555,4.718-1.462,7.178l31.204,70.162c-19.958,29.794-35.307,62.986-44.971,98.602l-73.376,22.472
						c-2.572,0.787-4.364,3.122-4.456,5.812l-3.211,92.051c-0.094,2.69,1.529,5.144,4.041,6.11l71.631,27.53
						c7.16,36.203,20.16,70.382,37.992,101.495l-36.017,67.818c-1.263,2.377-0.878,5.292,0.957,7.262L742.001,1498.171z"/>
					<path style="fill:#FFFFFF;" d="M1006.178,1275.481c-16.503,0-32.677-4.73-46.875-13.89
						c-19.48-12.566-32.898-31.968-37.785-54.626c-4.887-22.66-0.657-45.866,11.911-65.344
						c12.566-19.48,31.968-32.898,54.626-37.785c46.776-10.095,93.041,19.761,103.129,66.538
						c4.887,22.66,0.657,45.866-11.911,65.344s-31.968,32.897-54.626,37.783l0,0
						C1018.503,1274.825,1012.317,1275.481,1006.178,1275.481z M1006.365,1111.87c-5.347,0-10.769,0.563-16.202,1.734
						c-41.391,8.927-67.802,49.862-58.875,91.251c8.927,41.391,49.866,67.811,91.251,58.875l0,0
						c20.051-4.324,37.217-16.197,48.337-33.432c11.12-17.235,14.862-37.769,10.538-57.818
						C1073.66,1136.525,1041.744,1111.87,1006.365,1111.87z"/>
					<path style="fill:#FFFFFF;" d="M1007.77,1414.471c-2.671,0-5.334-0.046-8.025-0.14c-6.753-0.236-13.489-0.769-20.176-1.596
						c-0.229-0.029-0.46-0.057-0.69-0.086c-0.013-0.003-0.024-0.008-0.039-0.005c-0.036-0.005-0.073-0.01-0.111-0.015
						c-6.02-0.766-12-1.77-17.916-3.008c-0.06-0.013-0.12-0.026-0.179-0.037c-0.932-0.197-1.862-0.398-2.79-0.605
						c-1.088-0.242-2.175-0.495-3.258-0.753c-0.916-0.22-1.832-0.444-2.744-0.673l2.447-9.692
						c14.892,3.759,30.304,5.941,45.805,6.482c119.818,4.174,220.522-89.83,224.698-209.55c0.091-2.606,0.135-5.205,0.135-7.798
						c-0.008-55.142-20.573-107.416-58.372-147.95c-39.579-42.439-93.316-66.926-151.312-68.949
						c-119.709-4.109-220.519,89.828-224.698,209.55c-0.088,2.538-0.132,5.072-0.132,7.605
						c-0.002,36.755,9.277,72.889,27.013,104.955l-8.745,4.838c-18.556-33.549-28.264-71.347-28.262-109.792
						c0-2.648,0.045-5.3,0.138-7.953c4.371-125.231,109.875-223.619,235.034-219.19c122.541,4.275,219.321,105.321,219.329,226.991
						c0,2.671-0.046,5.352-0.14,8.042C1230.506,1317.68,1129.441,1414.471,1007.77,1414.471z"/>
				</g>
			</g>
			
				<linearGradient id="SVGID_00000110461723923027792850000010522231741101745559_" gradientUnits="userSpaceOnUse" x1="935.051" y1="3593.3062" x2="1037.7407" y2="4354.9185" gradientTransform="matrix(-0.0848 0.9964 -0.9964 -0.0848 5672.1763 84.4478)">
				<stop  offset="0" style="stop-color:#B37CFF"/>
				<stop  offset="1" style="stop-color:#F895E7"/>
			</linearGradient>
			<path style="fill:url(#SVGID_00000110461723923027792850000010522231741101745559_);" d="M1400.818,920.212l37.802-20.545
				c17.527,9.823,36.747,16.923,57.068,20.739l15.81,39.984c0.554,1.403,1.938,2.299,3.444,2.232l51.556-2.294
				c1.507-0.068,2.805-1.083,3.233-2.529l12.195-41.231c19.903-5.607,38.415-14.384,55.001-25.727l39.478,17.105
				c1.384,0.599,2.995,0.255,4.013-0.858l34.833-38.077c1.018-1.114,1.218-2.75,0.498-4.074l-20.544-37.801
				c9.824-17.527,16.923-36.747,20.739-57.069l39.985-15.81c1.402-0.554,2.298-1.937,2.231-3.444l-2.294-51.556
				c-0.067-1.507-1.082-2.805-2.529-3.232l-41.231-12.195c-5.606-19.903-14.384-38.416-25.727-55l17.106-39.478
				c0.599-1.383,0.255-2.995-0.858-4.013l-38.078-34.833c-1.112-1.019-2.749-1.218-4.074-0.498l-37.802,20.544
				c-17.527-9.824-36.747-16.923-57.069-20.739l-15.81-39.985c-0.555-1.402-1.937-2.298-3.444-2.232l-51.556,2.295
				c-1.507,0.067-2.805,1.082-3.232,2.528l-12.195,41.231c-19.903,5.606-38.416,14.385-55.001,25.727l-39.477-17.105
				c-1.383-0.601-2.996-0.255-4.014,0.857l-34.833,38.078c-1.018,1.112-1.218,2.749-0.498,4.074l20.544,37.802
				c-9.824,17.527-16.923,36.747-20.739,57.069l-39.985,15.81c-1.402,0.554-2.298,1.937-2.231,3.444l2.294,51.556
				c0.067,1.507,1.082,2.805,2.529,3.233l41.23,12.195c5.606,19.902,14.385,38.415,25.726,55l-17.105,39.477
				c-0.6,1.384-0.255,2.995,0.857,4.014l38.078,34.833C1397.856,920.732,1399.493,920.932,1400.818,920.212z"/>
			<path style="fill:#FFFFFF;" d="M1530.671,785.937c-21.856,0-42.096-14.225-48.698-36.209
				c-8.06-26.839,7.218-55.231,34.055-63.292c26.837-8.06,55.233,7.218,63.292,34.055c3.906,13.002,2.513,26.745-3.919,38.699
				c-6.432,11.955-17.136,20.688-30.136,24.592C1540.408,785.242,1535.499,785.937,1530.671,785.937z M1530.625,694.279
				c-3.88,0-7.821,0.558-11.722,1.729c-21.56,6.476-33.834,29.284-27.359,50.844c6.474,21.562,29.289,33.827,50.844,27.359l0,0
				c10.445-3.136,19.044-10.154,24.21-19.756c5.168-9.604,6.286-20.644,3.149-31.088
				C1564.444,705.708,1548.182,694.279,1530.625,694.279z"/>
			<g>
				<path style="fill:#EAC4F9;" d="M1309.739,905.028c-1.01,0-2.007-0.457-2.663-1.326c-2.699-3.577-5.342-7.263-7.855-10.954
					c-1.035-1.521-0.642-3.593,0.878-4.63c1.524-1.031,3.597-0.641,4.63,0.878c2.453,3.605,5.033,7.201,7.667,10.694
					c1.108,1.469,0.815,3.558-0.654,4.665C1311.141,904.81,1310.437,905.028,1309.739,905.028z"/>
				<path style="fill:#EAC4F9;" d="M1281.018,857.694c-1.245,0-2.438-0.7-3.009-1.898c-3.741-7.854-7.159-15.99-10.16-24.186
					c-0.633-1.728,0.255-3.641,1.983-4.273c1.719-0.631,3.639,0.254,4.273,1.983c2.93,8,6.268,15.943,9.92,23.61
					c0.791,1.661,0.086,3.65-1.575,4.441C1281.986,857.59,1281.5,857.694,1281.018,857.694z M1259.494,793.294
					c-1.552,0-2.939-1.088-3.262-2.666c-1.742-8.556-3.096-17.279-4.026-25.923c-0.197-1.83,1.126-3.471,2.956-3.668
					c1.806-0.187,3.47,1.126,3.668,2.956c0.908,8.438,2.23,16.952,3.932,25.305c0.366,1.804-0.797,3.563-2.599,3.93
					C1259.938,793.273,1259.713,793.294,1259.494,793.294z M1254.24,725.585c-0.052,0-0.104-0.002-0.158-0.003
					c-1.838-0.086-3.258-1.645-3.174-3.483c0.403-8.7,1.228-17.49,2.45-26.123c0.259-1.823,1.963-3.086,3.766-2.832
					c1.822,0.259,3.089,1.944,2.832,3.766c-1.194,8.428-1.998,17.006-2.391,25.498
					C1257.481,724.192,1256.008,725.585,1254.24,725.585z M1265.719,658.669c-0.319,0-0.644-0.047-0.965-0.143
					c-1.762-0.532-2.759-2.391-2.227-4.153c2.516-8.334,5.459-16.654,8.747-24.731c0.695-1.706,2.634-2.526,4.342-1.83
					c1.705,0.695,2.523,2.637,1.83,4.342c-3.21,7.886-6.082,16.008-8.539,24.145
					C1268.472,657.738,1267.149,658.669,1265.719,658.669z M1293.132,596.557c-0.581,0-1.168-0.151-1.703-0.47
					c-1.581-0.943-2.097-2.988-1.155-4.568c4.464-7.481,9.332-14.839,14.474-21.871c1.087-1.482,3.167-1.812,4.656-0.722
					c1.485,1.085,1.809,3.17,0.722,4.656c-5.018,6.865-9.773,14.048-14.129,21.35
					C1295.372,595.978,1294.268,596.557,1293.132,596.557z M1334.784,542.952c-0.851,0-1.702-0.324-2.351-0.971
					c-1.305-1.298-1.308-3.408-0.01-4.711c6.151-6.177,12.662-12.127,19.354-17.687c1.42-1.176,3.517-0.979,4.691,0.433
					c1.176,1.415,0.983,3.515-0.433,4.691c-6.533,5.428-12.888,11.236-18.893,17.264
					C1336.494,542.625,1335.638,542.952,1334.784,542.952z M1388.237,501.141c-1.132,0-2.237-0.577-2.861-1.618
					c-0.945-1.578-0.433-3.624,1.145-4.571c7.463-4.472,15.237-8.647,23.107-12.408c1.656-0.796,3.647-0.093,4.443,1.57
					c0.794,1.661,0.091,3.649-1.57,4.443c-7.683,3.67-15.27,7.746-22.554,12.112C1389.41,500.988,1388.82,501.141,1388.237,501.141z
					 M1450.304,473.668c-1.428,0-2.748-0.926-3.185-2.364c-0.537-1.76,0.457-3.621,2.217-4.156l0.787-0.239
					c8.116-2.437,16.402-4.527,24.64-6.216c1.791-0.373,3.564,0.791,3.932,2.595c0.369,1.802-0.792,3.563-2.595,3.932
					c-8.042,1.649-16.134,3.691-24.049,6.066l-0.776,0.236C1450.953,473.621,1450.626,473.668,1450.304,473.668z M1517.191,461.999
					c-1.763,0-3.236-1.386-3.323-3.167c-0.091-1.838,1.324-3.401,3.162-3.491c8.745-0.434,17.583-0.454,26.235-0.06
					c1.837,0.083,3.26,1.641,3.177,3.479c-0.085,1.838-1.632,3.247-3.479,3.177c-8.443-0.381-17.064-0.364-25.604,0.059
					C1517.303,461.998,1517.246,461.999,1517.191,461.999z"/>
				<path style="fill:#EAC4F9;" d="M1598.039,470.021c-0.27,0-0.543-0.033-0.817-0.101c-4.225-1.064-8.542-2.043-12.833-2.907
					c-1.802-0.364-2.97-2.121-2.608-3.925c0.363-1.804,2.107-2.96,3.925-2.607c4.394,0.887,8.817,1.888,13.142,2.978
					c1.784,0.449,2.866,2.261,2.417,4.044C1600.886,469.014,1599.529,470.021,1598.039,470.021z"/>
			</g>
			<g>
				<path style="fill:#EAC4F9;" d="M1771.697,602.463c-1.165,0-2.294-0.61-2.907-1.697c-2.152-3.824-4.417-7.629-6.73-11.309
					c-0.979-1.558-0.509-3.615,1.048-4.594c1.563-0.981,3.618-0.508,4.594,1.047c2.37,3.771,4.69,7.67,6.896,11.585
					c0.903,1.604,0.333,3.636-1.269,4.539C1772.812,602.325,1772.25,602.463,1771.697,602.463z"/>
				<path style="fill:#EAC4F9;" d="M1530.222,1015.114c-0.002,0-0.003,0-0.003,0c-8.566-0.01-17.241-0.423-25.783-1.23
					c-1.833-0.172-3.177-1.797-3.004-3.629c0.172-1.833,1.797-3.182,3.629-3.005c8.339,0.787,16.806,1.191,25.165,1.201
					c1.84,0.002,3.33,1.495,3.328,3.335S1532.06,1015.114,1530.222,1015.114z M1571.519,1012.043c-1.62,0-3.04-1.184-3.289-2.835
					c-0.275-1.819,0.979-3.517,2.798-3.79c8.264-1.245,16.579-2.891,24.718-4.893c1.78-0.434,3.592,0.652,4.031,2.44
					c0.439,1.786-0.652,3.592-2.44,4.031c-8.334,2.05-16.851,3.735-25.316,5.01
					C1571.853,1012.032,1571.685,1012.043,1571.519,1012.043z M1635.92,994.262c-1.313,0-2.556-0.781-3.084-2.069
					c-0.698-1.703,0.117-3.649,1.819-4.346c7.746-3.174,15.431-6.746,22.842-10.616c1.635-0.849,3.644-0.22,4.495,1.41
					c0.852,1.63,0.221,3.644-1.41,4.494c-7.592,3.966-15.465,7.624-23.399,10.876C1636.767,994.18,1636.34,994.262,1635.92,994.262z
					 M1694.197,961.633c-1.026,0-2.038-0.472-2.691-1.363c-1.088-1.484-0.766-3.569,0.719-4.656
					c6.743-4.939,13.337-10.255,19.599-15.803c1.376-1.222,3.481-1.093,4.703,0.285c1.22,1.376,1.093,3.483-0.285,4.703
					c-6.416,5.684-13.171,11.131-20.08,16.191C1695.568,961.424,1694.88,961.633,1694.197,961.633z M1742.875,915.931
					c-0.753,0-1.511-0.254-2.134-0.774c-1.412-1.179-1.601-3.281-0.421-4.693c5.352-6.408,10.479-13.155,15.239-20.054
					c1.048-1.513,3.12-1.895,4.635-0.851c1.514,1.046,1.895,3.12,0.851,4.634c-4.875,7.066-10.128,13.977-15.61,20.542
					C1744.776,915.525,1743.829,915.931,1742.875,915.931z M1779.209,859.887c-0.491,0-0.989-0.109-1.461-0.338
					c-1.653-0.808-2.338-2.804-1.529-4.457c3.676-7.514,7.048-15.291,10.024-23.115c0.654-1.718,2.577-2.585,4.298-1.929
					c1.719,0.654,2.583,2.578,1.929,4.298c-3.047,8.013-6.5,15.979-10.265,23.675C1781.627,859.2,1780.443,859.887,1779.209,859.887
					z M1801.141,796.789c-0.234,0-0.472-0.024-0.709-0.076c-1.797-0.389-2.939-2.164-2.549-3.961
					c1.775-8.186,3.187-16.544,4.195-24.845c0.221-1.827,1.887-3.118,3.709-2.905c1.827,0.221,3.128,1.882,2.905,3.709
					c-1.033,8.504-2.481,17.067-4.299,25.453C1804.054,795.723,1802.675,796.789,1801.141,796.789z M1807.267,730.253
					c-1.794,0-3.275-1.427-3.328-3.232c-0.249-8.348-0.896-16.801-1.924-25.12c-0.225-1.827,1.072-3.489,2.899-3.715
					c1.819-0.216,3.489,1.074,3.715,2.899c1.052,8.524,1.714,17.183,1.97,25.738c0.055,1.838-1.391,3.374-3.231,3.429
					C1807.333,730.253,1807.299,730.253,1807.267,730.253z M1797.189,664.216c-1.458,0-2.796-0.965-3.208-2.437
					c-0.496-1.78-1.01-3.559-1.544-5.336c-1.876-6.248-4-12.509-6.315-18.609c-0.652-1.721,0.213-3.645,1.932-4.298
					c1.726-0.649,3.644,0.212,4.298,1.932c2.37,6.248,4.545,12.661,6.466,19.058c0.545,1.819,1.072,3.637,1.581,5.459
					c0.495,1.773-0.542,3.61-2.313,4.106C1797.786,664.175,1797.485,664.216,1797.189,664.216z"/>
				<path style="fill:#EAC4F9;" d="M1463.78,1006.878c-0.268,0-0.542-0.033-0.813-0.099c-4.348-1.09-8.717-2.297-12.989-3.585
					c-1.762-0.532-2.757-2.391-2.227-4.153c0.534-1.762,2.399-2.752,4.153-2.227c4.169,1.259,8.438,2.437,12.683,3.501
					c1.785,0.447,2.87,2.258,2.422,4.042C1466.63,1005.87,1465.271,1006.878,1463.78,1006.878z"/>
			</g>
			<path style="fill:#FFFFFF;" d="M1531.252,863.766c-7.19,0-14.362-0.592-21.394-1.766c-0.101-0.016-0.2-0.034-0.301-0.051
				l1.669-9.854c8.332,1.415,16.875,1.937,25.407,1.557h-0.002c64.043-2.85,114.215-55.862,114.215-119.346
				c0-1.784-0.041-3.579-0.12-5.378c-1.418-31.896-15.174-61.33-38.732-82.879c-23.558-21.551-54.122-32.65-85.99-31.218
				c-64.042,2.85-114.215,55.862-114.217,119.346c0,1.784,0.041,3.579,0.12,5.378c0.963,21.648,7.758,42.589,19.65,60.56
				l-8.335,5.515c-12.89-19.48-20.256-42.174-21.3-65.629c-0.086-1.952-0.13-3.894-0.13-5.828
				c0.002-68.793,54.369-126.237,123.766-129.326c34.569-1.565,67.658,10.474,93.182,33.827
				c25.528,23.353,40.433,55.248,41.97,89.808c0.088,1.975,0.132,3.945,0.132,5.908c-0.003,32.412-11.94,63.205-33.957,87.274
				c-23.351,25.528-55.246,40.433-89.808,41.972h-0.002C1535.135,863.722,1533.192,863.766,1531.252,863.766z"/>
		</g>
		<g>
			<g>
				<path style="fill:#FFFFFF;" d="M1829.178,2769.345l409.598-74.551c23.578-4.292,39.394-26.651,35.587-50.313L1984.139,840.422
					c-4.118-25.595-29.348-42.112-54.453-35.646l-440.644,113.485c-22.359,5.759-36.472,27.809-32.338,50.524l321.27,1765.125
					C1782.328,2757.835,1805.253,2773.699,1829.178,2769.345z"/>
				<g style="opacity:0.73;">
					
						<linearGradient id="SVGID_00000031202462608328798500000008905581337344653733_" gradientUnits="userSpaceOnUse" x1="255.4295" y1="1244.1466" x2="317.9314" y2="2908.6814" gradientTransform="matrix(-0.9838 0.1791 0.1791 0.9838 1785.3986 -153.0679)">
						<stop  offset="0" style="stop-color:#CB236D"/>
						<stop  offset="1" style="stop-color:#4C246D"/>
					</linearGradient>
					<path style="fill:url(#SVGID_00000031202462608328798500000008905581337344653733_);" d="M2008.787,1547.262l29.87,214.509
						c2.811,20.188-10.636,39.056-30.637,42.986l-285.352,56.067c-21.021,4.131-41.358-9.734-45.194-30.81l-38.725-212.764
						c-3.761-20.664,9.774-40.517,30.383-44.566l294.207-57.812C1984.978,1510.619,2005.745,1525.42,2008.787,1547.262z"/>
					
						<linearGradient id="SVGID_00000156566270963503162450000006803917309239641505_" gradientUnits="userSpaceOnUse" x1="250.007" y1="1244.3608" x2="312.509" y2="2908.8979" gradientTransform="matrix(-0.9838 0.1791 0.1791 0.9838 1785.3986 -153.0679)">
						<stop  offset="0" style="stop-color:#CB236D"/>
						<stop  offset="1" style="stop-color:#4C246D"/>
					</linearGradient>
					<path style="fill:url(#SVGID_00000156566270963503162450000006803917309239641505_);" d="M1727.506,1893.402l280.859-55.186
						c21.639-4.252,42.407,10.549,45.448,32.391l29.871,214.503c2.812,20.188-10.636,39.057-30.637,42.987l-272.005,53.445
						c-21.021,4.13-41.358-9.734-45.194-30.81l-38.725-212.763C1693.361,1917.304,1706.896,1897.451,1727.506,1893.402z"/>
					
						<linearGradient id="SVGID_00000154419440349238895440000003849998077873638563_" gradientUnits="userSpaceOnUse" x1="265.3077" y1="1243.7509" x2="327.8095" y2="2908.2834" gradientTransform="matrix(-0.9838 0.1791 0.1791 0.9838 1785.3986 -153.0679)">
						<stop  offset="0" style="stop-color:#CB236D"/>
						<stop  offset="1" style="stop-color:#4C246D"/>
					</linearGradient>
					<path style="fill:url(#SVGID_00000154419440349238895440000003849998077873638563_);" d="M1560.726,1188.576l-29.161-160.217
						c-3.456-18.987,7.714-37.591,26.097-43.465l313.487-100.178c22.694-7.252,46.448,7.692,49.734,31.289l27.722,199.077
						c2.811,20.188-10.636,39.056-30.636,42.986l-312.047,61.319C1584.899,1223.517,1564.562,1209.653,1560.726,1188.576z"/>
					
						<linearGradient id="SVGID_00000089538486948042797920000014987296934497748877_" gradientUnits="userSpaceOnUse" x1="260.8522" y1="1243.9307" x2="323.3542" y2="2908.4656" gradientTransform="matrix(-0.9838 0.1791 0.1791 0.9838 1785.3986 -153.0679)">
						<stop  offset="0" style="stop-color:#CB236D"/>
						<stop  offset="1" style="stop-color:#4C246D"/>
					</linearGradient>
					<path style="fill:url(#SVGID_00000089538486948042797920000014987296934497748877_);" d="M1963.761,1223.921l29.87,214.504
						c2.811,20.188-10.636,39.055-30.636,42.986l-298.699,58.695c-21.021,4.13-41.359-9.734-45.195-30.811l-38.725-212.763
						c-3.761-20.664,9.774-40.517,30.383-44.566l307.555-60.436C1939.951,1187.277,1960.719,1202.078,1963.761,1223.921z"/>
					
						<linearGradient id="SVGID_00000072257457508803669110000004685870783605017256_" gradientUnits="userSpaceOnUse" x1="244.5841" y1="1244.5824" x2="307.0858" y2="2909.1123" gradientTransform="matrix(-0.9838 0.1791 0.1791 0.9838 1785.3986 -153.0679)">
						<stop  offset="0" style="stop-color:#CB236D"/>
						<stop  offset="1" style="stop-color:#4C246D"/>
					</linearGradient>
					<path style="fill:url(#SVGID_00000072257457508803669110000004685870783605017256_);" d="M2098.839,2193.948l21.735,156.08
						c2.84,20.394-10.907,39.399-31.164,43.086l-261.735,47.638c-20.87,3.799-40.868-10.041-44.667-30.91l-27.512-151.156
						c-3.761-20.665,9.774-40.518,30.383-44.567l267.511-52.563C2075.03,2157.306,2095.797,2172.107,2098.839,2193.948z"/>
				</g>
			</g>
			<g>
				<path style="fill:#FFFFFF;" d="M1721.652,2574.637l398.666,119.976c22.948,6.906,47.206-5.81,54.581-28.611l562.386-1738.558
					c7.979-24.666-6.973-50.853-32.271-56.518l-444.027-99.43c-22.53-5.045-45.13,8.169-51.784,30.278l-517.025,1718.012
					C1685.17,2543.072,1698.366,2567.63,1721.652,2574.637z"/>
				<g style="opacity:0.76;">
					
						<linearGradient id="SVGID_00000093153465356628861500000012486665187212317095_" gradientUnits="userSpaceOnUse" x1="2667.5828" y1="508.5233" x2="1980.0018" y2="2217.2622">
						<stop  offset="0" style="stop-color:#FDF53F"/>
						<stop  offset="1" style="stop-color:#D93C65"/>
					</linearGradient>
					<path style="fill:url(#SVGID_00000093153465356628861500000012486665187212317095_);" d="M2437.628,1568.099l-70.999,204.609
						c-6.682,19.256-27.242,29.94-46.841,24.339l-279.616-79.904c-20.598-5.886-32.4-27.485-26.227-48l62.321-207.084
						c6.052-20.113,27.138-31.633,47.333-25.863l288.294,82.38C2433.099,1524.634,2444.858,1547.264,2437.628,1568.099z"/>
					
						<linearGradient id="SVGID_00000105425004539170764690000005074743101194319533_" gradientUnits="userSpaceOnUse" x1="2688.561" y1="516.9657" x2="2000.9799" y2="2225.7053">
						<stop  offset="0" style="stop-color:#FDF53F"/>
						<stop  offset="1" style="stop-color:#D93C65"/>
					</linearGradient>
					<path style="fill:url(#SVGID_00000105425004539170764690000005074743101194319533_);" d="M2029.659,1748.354l275.213,78.645
						c21.203,6.059,32.963,28.689,25.733,49.522l-70.998,204.606c-6.682,19.256-27.242,29.94-46.841,24.34l-266.536-76.167
						c-20.599-5.886-32.4-27.486-26.227-48l62.32-207.084C1988.378,1754.104,2009.464,1742.583,2029.659,1748.354z"/>
					
						<linearGradient id="SVGID_00000118398017080667580400000005594193908585404034_" gradientUnits="userSpaceOnUse" x1="2627.8569" y1="492.5395" x2="1940.2762" y2="2201.2778">
						<stop  offset="0" style="stop-color:#FDF53F"/>
						<stop  offset="1" style="stop-color:#D93C65"/>
					</linearGradient>
					<path style="fill:url(#SVGID_00000118398017080667580400000005594193908585404034_);" d="M2201.831,1044.826l46.929-155.941
						c5.562-18.48,23.973-29.964,43.015-26.831l324.739,53.425c23.509,3.868,37.862,27.983,30.051,50.492l-65.892,189.891
						c-6.682,19.256-27.241,29.939-46.84,24.34l-305.776-87.375C2207.459,1086.941,2195.657,1065.341,2201.831,1044.826z"/>
					
						<linearGradient id="SVGID_00000024699824980614082750000012257639491057125532_" gradientUnits="userSpaceOnUse" x1="2646.6038" y1="500.0816" x2="1959.0232" y2="2208.8196">
						<stop  offset="0" style="stop-color:#FDF53F"/>
						<stop  offset="1" style="stop-color:#D93C65"/>
					</linearGradient>
					<path style="fill:url(#SVGID_00000024699824980614082750000012257639491057125532_);" d="M2544.65,1259.677l-70.998,204.605
						c-6.682,19.256-27.241,29.94-46.84,24.34l-292.696-83.638c-20.599-5.886-32.401-27.486-26.228-48l62.321-207.084
						c6.052-20.112,27.138-31.634,47.333-25.863l301.374,86.117C2540.121,1216.213,2551.879,1238.843,2544.65,1259.677z"/>
					
						<linearGradient id="SVGID_00000059290393568035490710000015244849192011669691_" gradientUnits="userSpaceOnUse" x1="2708.2122" y1="524.8717" x2="2020.6311" y2="2233.6111">
						<stop  offset="0" style="stop-color:#FDF53F"/>
						<stop  offset="1" style="stop-color:#D93C65"/>
					</linearGradient>
					<path style="fill:url(#SVGID_00000059290393568035490710000015244849192011669691_);" d="M2223.584,2184.943l-51.661,148.878
						c-6.749,19.452-27.638,30.122-47.355,24.188l-254.749-76.665c-20.313-6.113-31.825-27.536-25.711-47.848l44.275-147.122
						c6.052-20.112,27.138-31.633,47.334-25.862l262.133,74.908C2219.054,2141.479,2230.813,2164.109,2223.584,2184.943z"/>
				</g>
			</g>
			<g>
				<path style="fill:#FFFFFF;" d="M1790.316,2764.846l347.652,229.056c20.012,13.185,46.894,7.944,60.487-11.793l1036.438-1504.878
					c14.705-21.35,7.872-50.721-14.746-63.39l-396.996-222.352c-20.144-11.282-45.581-5.089-58.283,14.191l-987.095,1498.174
					C1764.394,2724.16,1770.01,2751.467,1790.316,2764.846z"/>
				<g style="opacity:0.75;">
					
						<linearGradient id="SVGID_00000149361081564316140400000000742495496488459695_" gradientUnits="userSpaceOnUse" x1="2922.9961" y1="1395.843" x2="2163.8857" y2="2529.4033" gradientTransform="matrix(0.998 -0.0625 0.0625 0.998 -37.9587 62.9046)">
						<stop  offset="0" style="stop-color:#53D8FF"/>
						<stop  offset="1" style="stop-color:#3840F7"/>
					</linearGradient>
					<path style="fill:url(#SVGID_00000149361081564316140400000000742495496488459695_);" d="M2764.416,2005.324l-126.589,175.73
						c-11.914,16.538-34.672,20.891-51.847,9.916l-245.051-156.589c-18.052-11.536-23.178-35.609-11.391-53.498l118.981-180.586
						c11.556-17.539,35.056-22.544,52.755-11.234l252.658,161.444C2772.515,1962.382,2777.305,1987.43,2764.416,2005.324z"/>
					
						<linearGradient id="SVGID_00000033366087846176513630000014153642195906024871_" gradientUnits="userSpaceOnUse" x1="2902.449" y1="1382.0757" x2="2143.3398" y2="2515.634" gradientTransform="matrix(0.998 -0.0625 0.0625 0.998 -37.9587 62.9046)">
						<stop  offset="0" style="stop-color:#53D8FF"/>
						<stop  offset="1" style="stop-color:#3840F7"/>
					</linearGradient>
					<path style="fill:url(#SVGID_00000033366087846176513630000014153642195906024871_);" d="M2321.922,2061.278l241.192,154.122
						c18.583,11.874,23.374,36.922,10.484,54.816l-126.586,175.726c-11.914,16.539-34.671,20.891-51.847,9.916l-233.587-149.263
						c-18.052-11.535-23.179-35.609-11.392-53.498l118.981-180.585C2280.723,2054.973,2304.224,2049.969,2321.922,2061.278z"/>
					
						<linearGradient id="SVGID_00000026884563773517255650000007982344283250683830_" gradientUnits="userSpaceOnUse" x1="2963.4597" y1="1422.9664" x2="2204.366" y2="2556.5022" gradientTransform="matrix(0.998 -0.0625 0.0625 0.998 -37.9587 62.9046)">
						<stop  offset="0" style="stop-color:#53D8FF"/>
						<stop  offset="1" style="stop-color:#3840F7"/>
					</linearGradient>
					<path style="fill:url(#SVGID_00000026884563773517255650000007982344283250683830_);" d="M2688.242,1436.455l89.597-135.987
						c10.618-16.115,31.546-21.85,48.896-13.398l295.864,144.13c21.418,10.434,28.27,37.649,14.344,56.98l-117.482,163.089
						c-11.914,16.538-34.672,20.891-51.847,9.916l-267.979-171.234C2681.582,1478.418,2676.456,1454.345,2688.242,1436.455z"/>
					
						<linearGradient id="SVGID_00000102543106655630009340000013879984018374196410_" gradientUnits="userSpaceOnUse" x1="2943.5425" y1="1409.6104" x2="2184.4321" y2="2543.1707" gradientTransform="matrix(0.998 -0.0625 0.0625 0.998 -37.9587 62.9046)">
						<stop  offset="0" style="stop-color:#53D8FF"/>
						<stop  offset="1" style="stop-color:#3840F7"/>
					</linearGradient>
					<path style="fill:url(#SVGID_00000102543106655630009340000013879984018374196410_);" d="M2955.231,1740.434l-126.587,175.727
						c-11.913,16.539-34.671,20.891-51.846,9.916l-256.516-163.91c-18.052-11.535-23.178-35.609-11.392-53.498l118.981-180.585
						c11.555-17.539,35.056-22.544,52.755-11.234l264.12,168.768C2963.331,1697.492,2968.121,1722.54,2955.231,1740.434z"/>
					
						<linearGradient id="SVGID_00000173861074724140196800000013927566910480412089_" gradientUnits="userSpaceOnUse" x1="2883.3362" y1="1369.2633" x2="2124.2249" y2="2502.8252" gradientTransform="matrix(0.998 -0.0625 0.0625 0.998 -37.9587 62.9046)">
						<stop  offset="0" style="stop-color:#53D8FF"/>
						<stop  offset="1" style="stop-color:#3840F7"/>
					</linearGradient>
					<path style="fill:url(#SVGID_00000173861074724140196800000013927566910480412089_);" d="M2382.783,2535.106l-92.108,127.865
						c-12.036,16.707-35.103,20.952-52.298,9.624l-222.15-146.368c-17.714-11.671-22.613-35.492-10.942-53.206l84.53-128.296
						c11.555-17.539,35.056-22.543,52.755-11.233l229.729,146.798C2390.882,2492.164,2395.672,2517.212,2382.783,2535.106z"/>
				</g>
			</g>
		</g>
		<g>
			
				<linearGradient id="SVGID_00000103264502058061238910000007176993395870337690_" gradientUnits="userSpaceOnUse" x1="1139.1971" y1="2262.0574" x2="2508.3179" y2="2262.0574">
				<stop  offset="0" style="stop-color:#2B3582"/>
				<stop  offset="1" style="stop-color:#150E42"/>
			</linearGradient>
			<path style="fill:url(#SVGID_00000103264502058061238910000007176993395870337690_);" d="M1232.539,2252.169l-81.5,65.339
				c-22.631,18.139-10.646,56.928,17.55,56.788l1339.729-7.898l-362.698-216.579h-626.357
				C1415.977,2149.819,1315.439,2185.705,1232.539,2252.169z"/>
			
				<linearGradient id="SVGID_00000033343244398176678960000002339691728578907028_" gradientUnits="userSpaceOnUse" x1="1935.4792" y1="2192.1008" x2="1992.2826" y2="3279.4956">
				<stop  offset="0" style="stop-color:#FDF53F"/>
				<stop  offset="1" style="stop-color:#D93C65"/>
			</linearGradient>
			<path style="fill:url(#SVGID_00000033343244398176678960000002339691728578907028_);" d="M3227.984,2834.929
				c-1.171-10.982-2.371-21.984-3.578-32.878c-12.392-111.793-69.445-212.142-156.278-274.598l-6.727-4.833
				c-104.585-75.221-224.736-121.493-349.832-134.724l-203.251-21.498l-1339.729,7.898c-28.196,0.14-40.181-38.648-17.55-56.788
				l81.5-65.339c82.9-66.464,183.438-102.351,286.724-102.351h626.357l-4.697-2.113c-37.636-16.936-78.01-25.656-118.788-25.656
				h-589.853c-35.839,0-71.474,5.795-105.721,17.183l-443.647,177.128c-21.926,7.296-41.498,21.111-56.474,39.861l-91.645,114.76
				c-19.075,23.887-29.567,54.367-29.567,85.896v187.009c0,49.496,162.241,218.609,162.241,218.609
				c17.671,9.708,37.221,14.77,57.052,14.77h1993.028l211.673-14.878C3189.843,2958.124,3234.927,2900.035,3227.984,2834.929z"/>
			
				<linearGradient id="SVGID_00000094579366772218180200000016725855460723556507_" gradientUnits="userSpaceOnUse" x1="3307.3391" y1="2736.6877" x2="2902.8276" y2="3180.7385">
				<stop  offset="0" style="stop-color:#53D8FF"/>
				<stop  offset="1" style="stop-color:#3840F7"/>
			</linearGradient>
			<path style="fill:url(#SVGID_00000094579366772218180200000016725855460723556507_);" d="M3220.945,2919.642h-6.335
				c-12.336,0-22.335-10.788-22.335-24.096V2774.46c0-13.308,10-24.096,22.335-24.096l0,0c11.846,0,21.633,9.978,22.3,22.738
				l6.335,121.086C3243.969,2908.008,3233.776,2919.642,3220.945,2919.642z"/>
			
				<linearGradient id="SVGID_00000132798368384031852590000008155094478526780564_" gradientUnits="userSpaceOnUse" x1="3207.3542" y1="2507.9236" x2="2465.3127" y2="3491.6382">
				<stop  offset="0" style="stop-color:#53D8FF"/>
				<stop  offset="1" style="stop-color:#3840F7"/>
			</linearGradient>
			<path style="fill:url(#SVGID_00000132798368384031852590000008155094478526780564_);" d="M3142.346,2727.125h66.505
				c-24.754-80.964-73.855-151.576-140.724-199.671l-6.727-4.833c-6.93-4.983-13.938-9.821-21.002-14.552
				c13.577,51.096,30.316,121.161,41.338,168.185C3088.757,2706.2,3113.711,2727.125,3142.346,2727.125z"/>
			
				<linearGradient id="SVGID_00000029045613775356685410000016771260268854364053_" gradientUnits="userSpaceOnUse" x1="945.6772" y1="2592.8667" x2="1585.6035" y2="3287.2549">
				<stop  offset="0" style="stop-color:#53D8FF"/>
				<stop  offset="1" style="stop-color:#3840F7"/>
			</linearGradient>
			<path style="fill:url(#SVGID_00000029045613775356685410000016771260268854364053_);" d="M882.914,2454.831v-138.47
				c-21.926,7.296-41.498,21.111-56.474,39.861l-91.645,114.76c-15.925,19.941-25.763,44.499-28.614,70.406l125.102-21.354
				C861.017,2514.964,882.914,2487.307,882.914,2454.831z"/>
			
				<linearGradient id="SVGID_00000047045288225884923210000007428226290707787392_" gradientUnits="userSpaceOnUse" x1="2305.4868" y1="2458.4519" x2="2060.9316" y2="2261.0918">
				<stop  offset="0" style="stop-color:#FDF53F"/>
				<stop  offset="1" style="stop-color:#D93C65"/>
			</linearGradient>
			<path style="fill:url(#SVGID_00000047045288225884923210000007428226290707787392_);" d="M2288.179,2360.307l-47.104-49.378
				c-19.629-20.576-44.333-34.622-71.161-40.458l-93.166-20.268c-25.567-5.562-50.037,13.773-52.836,41.748l-0.658,6.571
				c-2.85,28.495,18.013,53.277,44.577,52.952l120.025-1.472c16.739-0.205,31.949,10.47,38.56,27.062l2.211,5.549
				c2.935,7.364,9.651,12.137,17.081,12.137h29.514C2291.916,2394.751,2300.152,2372.857,2288.179,2360.307z"/>
			
				<linearGradient id="SVGID_00000059304629541076996260000016759838898434263721_" gradientUnits="userSpaceOnUse" x1="1785.433" y1="2603.543" x2="1914.1465" y2="2474.8296">
				<stop  offset="0" style="stop-color:#FDF53F"/>
				<stop  offset="1" style="stop-color:#D93C65"/>
			</linearGradient>
			<path style="fill:url(#SVGID_00000059304629541076996260000016759838898434263721_);" d="M1805.554,2449.754h205.43
				c16.024,0,27.319,17.179,21.764,33.394c-9.399,27.433-31.787,62.423-84.998,66.51c-47.856,3.676-108.176-25.558-153.673-53.334
				C1773.451,2483.732,1781.854,2449.754,1805.554,2449.754z"/>
			
				<linearGradient id="SVGID_00000046298464768283220350000003490520688640026803_" gradientUnits="userSpaceOnUse" x1="929.5005" y1="2927.9119" x2="1471.874" y2="2927.9119">
				<stop  offset="0" style="stop-color:#2B3582"/>
				<stop  offset="1" style="stop-color:#150E42"/>
			</linearGradient>
			
				<circle style="fill:url(#SVGID_00000046298464768283220350000003490520688640026803_);" cx="1200.688" cy="2927.912" r="271.187"/>
			
				<linearGradient id="SVGID_00000127027344397432219900000006392504659773073087_" gradientUnits="userSpaceOnUse" x1="1200.6875" y1="2281.1531" x2="1200.6875" y2="3155.9475">
				<stop  offset="0" style="stop-color:#53D8FF"/>
				<stop  offset="1" style="stop-color:#3840F7"/>
			</linearGradient>
			
				<circle style="opacity:0.61;fill:url(#SVGID_00000127027344397432219900000006392504659773073087_);" cx="1200.688" cy="2927.912" r="220.233"/>
			
				<linearGradient id="SVGID_00000141432382452661937340000006665955280969179319_" gradientUnits="userSpaceOnUse" x1="2528.9387" y1="2927.9119" x2="3071.313" y2="2927.9119">
				<stop  offset="0" style="stop-color:#2B3582"/>
				<stop  offset="1" style="stop-color:#150E42"/>
			</linearGradient>
			
				<circle style="fill:url(#SVGID_00000141432382452661937340000006665955280969179319_);" cx="2800.126" cy="2927.912" r="271.187"/>
			
				<linearGradient id="SVGID_00000023983949567893642210000011050341618770625947_" gradientUnits="userSpaceOnUse" x1="2800.1257" y1="2281.1531" x2="2800.1257" y2="3155.9475">
				<stop  offset="0" style="stop-color:#53D8FF"/>
				<stop  offset="1" style="stop-color:#3840F7"/>
			</linearGradient>
			
				<circle style="opacity:0.61;fill:url(#SVGID_00000023983949567893642210000011050341618770625947_);" cx="2800.126" cy="2927.912" r="220.233"/>
			<path style="fill:#FFFFFF;" d="M2979.791,3007.144c-0.433,0-0.872-0.086-1.296-0.265c-1.695-0.716-2.487-2.671-1.77-4.366
				c9.993-23.626,15.06-48.725,15.06-74.601c0-105.68-85.978-191.658-191.659-191.658c-32.784,0-65.136,8.418-93.558,24.347
				c-1.599,0.9-3.632,0.329-4.535-1.279c-0.9-1.604-0.327-3.636,1.279-4.535c29.414-16.483,62.891-25.196,96.814-25.196
				c109.355,0,198.323,88.966,198.323,198.321c0,26.772-5.245,52.744-15.587,77.197
				C2982.324,3006.379,2981.089,3007.142,2979.791,3007.144z"/>
			<path style="fill:#FFFFFF;" d="M1385.674,3007.144c-0.433,0-0.872-0.086-1.297-0.265c-1.695-0.716-2.487-2.671-1.77-4.366
				c9.993-23.626,15.06-48.725,15.06-74.601c0-105.68-85.978-191.658-191.659-191.658c-32.785,0-65.136,8.418-93.558,24.347
				c-1.599,0.9-3.632,0.329-4.535-1.279c-0.899-1.604-0.327-3.636,1.279-4.535c29.414-16.483,62.891-25.196,96.815-25.196
				c109.355,0,198.322,88.966,198.322,198.321c0,26.772-5.245,52.744-15.587,77.197
				C1388.206,3006.379,1386.972,3007.142,1385.674,3007.144z"/>
			<path style="fill:#FFFFFF;" d="M1528.83,2843.849c-1.568,0-2.965-1.111-3.27-2.708
				c-24.147-126.961-96.53-207.729-215.142-240.067c-88.645-24.166-171.148-10.673-171.973-10.534
				c-1.815,0.306-3.533-0.917-3.839-2.73c-0.307-1.814,0.914-3.533,2.73-3.839c0.836-0.142,84.788-13.873,174.836,10.674
				c83.376,22.731,189.216,83.731,219.935,245.249c0.343,1.807-0.843,3.553-2.65,3.896
				C1529.244,2843.831,1529.036,2843.849,1528.83,2843.849z"/>
			<path style="fill:#FFFFFF;" d="M2468.902,2885.169c-1.792,0-3.271-1.423-3.328-3.227
				c-3.123-99.809,23.607-177.977,79.448-232.335c92.195-89.742,233.672-82.594,235.087-82.514c1.836,0.107,3.239,1.684,3.131,3.52
				c-0.106,1.835-1.667,3.231-3.519,3.133c-1.383-0.072-140.034-7.027-230.09,80.673c-54.419,52.996-80.46,129.477-77.398,227.315
				c0.057,1.838-1.386,3.377-3.226,3.434C2468.972,2885.169,2468.936,2885.169,2468.902,2885.169z"/>
			<path style="fill:#FFFFFF;" d="M1177.144,2343.696c-1.158,0-2.286-0.605-2.899-1.684c-0.909-1.599-0.351-3.634,1.248-4.543
				l181.644-103.352c51.61-29.365,110.271-45.45,169.64-46.517l208.361-3.74c1.801-0.055,3.359,1.431,3.392,3.271
				c0.033,1.84-1.432,3.358-3.271,3.392l-208.361,3.74c-58.259,1.046-115.823,16.83-166.465,45.645l-181.644,103.352
				C1178.268,2343.556,1177.702,2343.696,1177.144,2343.696z"/>
		</g>
		<g>
			<g>
				
					<linearGradient id="SVGID_00000182496825124978690580000013880029570651956875_" gradientUnits="userSpaceOnUse" x1="64.8102" y1="1338.8135" x2="276.1201" y2="1898.7854" gradientTransform="matrix(-0.9869 0.1614 0.1614 0.9869 1222.7954 575.3264)">
					<stop  offset="0" style="stop-color:#F9B776"/>
					<stop  offset="1" style="stop-color:#F47960"/>
				</linearGradient>
				<path style="fill:url(#SVGID_00000182496825124978690580000013880029570651956875_);" d="M1444.83,1993.891L1410.466,2041
					c-59.083,3.924-106.869-6.839-145.053-24.163c12.289-54.913,28.333-88.919,41.936-109.532
					C1373.961,1974.607,1444.83,1993.891,1444.83,1993.891z"/>
				
					<linearGradient id="SVGID_00000028288746650614932820000007331601295633381762_" gradientUnits="userSpaceOnUse" x1="2448.4116" y1="1730.3606" x2="2128.9839" y2="1982.0948" gradientTransform="matrix(-1 0 0 1 3501.6965 0)">
					<stop  offset="0" style="stop-color:#CE1567"/>
					<stop  offset="1" style="stop-color:#7A1DBC"/>
				</linearGradient>
				<path style="fill:url(#SVGID_00000028288746650614932820000007331601295633381762_);" d="M1134.885,1889.354l71.972-167.014
					c20.294,84.246,59.592,143.64,100.492,184.965c-13.603,20.613-29.647,54.62-41.936,109.532
					C1170.125,1973.607,1134.885,1889.354,1134.885,1889.354z"/>
			</g>
			
				<linearGradient id="SVGID_00000182492687069378841880000011296743374302372782_" gradientUnits="userSpaceOnUse" x1="8864.5439" y1="3126.4104" x2="8840.334" y2="3204.3787" gradientTransform="matrix(1 0 0 1 -7765.9043 0)">
				<stop  offset="0" style="stop-color:#C32B78"/>
				<stop  offset="1" style="stop-color:#593092"/>
			</linearGradient>
			<path style="fill:url(#SVGID_00000182492687069378841880000011296743374302372782_);" d="M1059.786,3190.794
				c48.854,2.248,96.141,0.836,127.714-0.787c-28.747-20.461-94.974-64.978-150.392-82.702l-38.043-2.276
				c0,0-12.891,19.605-17.49,64.469C987.879,3177.364,1006.308,3188.333,1059.786,3190.794z"/>
			
				<linearGradient id="SVGID_00000013172077136458272490000002390413953014349735_" gradientUnits="userSpaceOnUse" x1="1090.7666" y1="3053.7939" x2="1077.1511" y2="3418.0068">
				<stop  offset="0" style="stop-color:#53D8FF"/>
				<stop  offset="1" style="stop-color:#3840F7"/>
			</linearGradient>
			<path style="fill:url(#SVGID_00000013172077136458272490000002390413953014349735_);" d="M1187.894,3190.286
				c-0.126-0.089-0.266-0.188-0.393-0.279c-31.573,1.623-78.86,3.035-127.714,0.787c-53.479-2.461-71.907-13.43-78.212-21.296
				c-0.212,2.066-0.429,4.119-0.603,6.294c-0.79,9.846,6.518,18.49,16.366,19.235c40.01,3.025,139.212,9.876,187.051,7.367
				C1190.698,3202.063,1193.039,3193.954,1187.894,3190.286z"/>
			
				<linearGradient id="SVGID_00000066498209040746715070000018098070232690004908_" gradientUnits="userSpaceOnUse" x1="8459.0635" y1="3106.4751" x2="8429.6797" y2="3201.1101" gradientTransform="matrix(1 0 0 1 -7765.9043 0)">
				<stop  offset="0" style="stop-color:#C32B78"/>
				<stop  offset="1" style="stop-color:#593092"/>
			</linearGradient>
			<path style="fill:url(#SVGID_00000066498209040746715070000018098070232690004908_);" d="M717.807,3177.72
				c-3.578-22.934-9.315-56.091-13.747-64.567c-6.954-13.298-30.759,0-30.759,0s-16.712,7.792-24.403,20.781
				c-4.902,8.28-18.462,31.836-27.649,47.83c-1.057,1.84-1.497,3.798-1.442,5.694l95.318,3.336
				C717.457,3187.054,718.552,3182.495,717.807,3177.72z"/>
			
				<linearGradient id="SVGID_00000058552027396859555240000000121981719697637562_" gradientUnits="userSpaceOnUse" x1="699.0159" y1="2954.7656" x2="627.5347" y2="3485.7693">
				<stop  offset="0" style="stop-color:#53D8FF"/>
				<stop  offset="1" style="stop-color:#3840F7"/>
			</linearGradient>
			<path style="fill:url(#SVGID_00000058552027396859555240000000121981719697637562_);" d="M619.808,3187.458
				c0.159,5.445,4.474,10.383,10.563,10.551l67.907,1.868c7.176,0.198,13.388-3.531,16.848-9.083L619.808,3187.458z"/>
			
				<linearGradient id="SVGID_00000060730159621349857510000015507964533665499794_" gradientUnits="userSpaceOnUse" x1="1962.9238" y1="-935.7666" x2="2457.9297" y2="-1741.7388" gradientTransform="matrix(-1 0 0 1 1267.5382 0)">
				<stop  offset="0" style="stop-color:#CE1567"/>
				<stop  offset="1" style="stop-color:#7A1DBC"/>
			</linearGradient>
			<path style="fill:url(#SVGID_00000060730159621349857510000015507964533665499794_);" d="M1280.957,1702.563
				c-60.782-15.922-172.901-40.857-262.156-35.536c-20.499,1.222-36.927,17.43-38.089,37.932
				c-13.483,237.711-31.908,448.652-66.604,571.385c77.99,30.862,155.306,45.177,231.584,33.969
				c57.144-122.398,107.104-263.702,149.792-424.174c0,0,25.044-127.993,0.725-170.654
				C1292.419,1708.834,1287.429,1704.258,1280.957,1702.563z"/>
			
				<linearGradient id="SVGID_00000093159018546970319350000012715857272992032402_" gradientUnits="userSpaceOnUse" x1="8922.4443" y1="1756.1284" x2="8948.6162" y2="1594.734" gradientTransform="matrix(1 0 0 1 -7765.9043 0)">
				<stop  offset="0" style="stop-color:#F9B776"/>
				<stop  offset="1" style="stop-color:#F47960"/>
			</linearGradient>
			<path style="fill:url(#SVGID_00000093159018546970319350000012715857272992032402_);" d="M1134.756,1536.046
				c0,0-15.348,91.569-19.924,133.915c-0.744,6.881,2.856,13.388,9.01,16.556c16.776,8.636,52.587,22.545,91.608,9.781
				c6.426-2.102,10.64-8.32,10.492-15.08l-2.676-122.245L1134.756,1536.046z"/>
			<g>
				
					<linearGradient id="SVGID_00000078744474112534097120000009176581067057898941_" gradientUnits="userSpaceOnUse" x1="9006.9717" y1="1494.4706" x2="8837.6768" y2="1624.0072" gradientTransform="matrix(1 0 0 1 -7765.9043 0)">
					<stop  offset="0" style="stop-color:#F9B776"/>
					<stop  offset="1" style="stop-color:#F47960"/>
				</linearGradient>
				<path style="fill:url(#SVGID_00000078744474112534097120000009176581067057898941_);" d="M1234.86,1434.59
					c0,0,29.614,68.029,31.603,103.735c1.989,35.706,9.683,58.875-31.603,66.065c-41.286,7.19-76.066-13.377-94.908-48.944
					c0,0-29.522-54.806-22.899-77.25C1123.675,1455.752,1234.86,1434.59,1234.86,1434.59z"/>
				
					<linearGradient id="SVGID_00000022548165719514739850000012718088181265674155_" gradientUnits="userSpaceOnUse" x1="8879.6377" y1="1398.7374" x2="9032.9365" y2="1596.1099" gradientTransform="matrix(1 0 0 1 -7765.9043 0)">
					<stop  offset="0" style="stop-color:#2B3582"/>
					<stop  offset="1" style="stop-color:#150E42"/>
				</linearGradient>
				<path style="fill:url(#SVGID_00000022548165719514739850000012718088181265674155_);" d="M1154.06,1529.874h5.219
					c0,0-21.505-44.11-2.61-51.859c18.895-7.749,76.725-7.659,92.874-34.217c15.568-25.603-25.552-41.329-46.324-50.585
					c-1.314-0.585,24.702-3.962,24.03-2.69l4.28-3.18c-1.178,2.23-14.829-8.339-15.531-10.761
					c-0.665-2.298-16.835-12.181-18.098-10.15c-4.944,7.942,15.788,18.2-20.113,24.826c-50.941,9.401-84.618,30.018-85.446,65.223
					c-0.053,2.23-2.437,3.459-4.341,2.298c-3.761-2.292,11.185-3.359,3.142,3.404c-5.75,4.835-9.405,10.485-10.276,18.006
					c-1.016,8.776,5.53,19.573,11.65,25.348c3.612,3.409,5.575,7.911,5.475,12.881c-0.103,5.105-3.069,9.223-3.677,14.152
					c-0.779,6.323,5.502,10.682,10.31,13.445c6.721,3.862,13.38,7.844,19.797,12.196c3.598,2.44,10.8,9.947,15.518,8.74
					c1.32-0.338,2.207-1.541,2.123-2.901l-1.928-31.199c-0.099-1.613,1.182-2.977,2.798-2.977H1154.06z"/>
				
					<linearGradient id="SVGID_00000083786535359896111910000017763885442434472321_" gradientUnits="userSpaceOnUse" x1="8985.9727" y1="1467.0261" x2="8816.6777" y2="1596.5629" gradientTransform="matrix(1 0 0 1 -7765.9043 0)">
					<stop  offset="0" style="stop-color:#F9B776"/>
					<stop  offset="1" style="stop-color:#F47960"/>
				</linearGradient>
				<path style="fill:url(#SVGID_00000083786535359896111910000017763885442434472321_);" d="M1155.343,1536.401
					c0,0-11.298-43.455-30.781-31.271c-19.483,12.184,10.11,48.69,25.774,50.316L1155.343,1536.401z"/>
			</g>
			<g>
				
					<linearGradient id="SVGID_00000065773860712436181470000005144036147237729457_" gradientUnits="userSpaceOnUse" x1="0.7828" y1="-116.2682" x2="-79.8765" y2="-476.8633" gradientTransform="matrix(-1 0 0 1 1267.5382 0)">
					<stop  offset="0" style="stop-color:#F9B776"/>
					<stop  offset="1" style="stop-color:#F47960"/>
				</linearGradient>
				<path style="fill:url(#SVGID_00000065773860712436181470000005144036147237729457_);" d="M823.423,2019.158
					c-30.059,84.333-13.131,174.747-13.131,174.747l-39.621,10.566c0,0-51.187-60.881-39.477-195.977
					C767.767,2002.913,802.022,2011.484,823.423,2019.158z"/>
				
					<linearGradient id="SVGID_00000091694483969004616330000013080329193667355553_" gradientUnits="userSpaceOnUse" x1="2064.6899" y1="-873.2595" x2="2559.697" y2="-1679.2334" gradientTransform="matrix(-1 0 0 1 1267.5382 0)">
					<stop  offset="0" style="stop-color:#CE1567"/>
					<stop  offset="1" style="stop-color:#7A1DBC"/>
				</linearGradient>
				<path style="fill:url(#SVGID_00000091694483969004616330000013080329193667355553_);" d="M731.194,2008.494
					c1.316-15.19,3.387-31.271,6.458-48.357c26.772-148.997,217.788-263.609,262.736-288.707c4.179-2.334,9.265,0.816,9.114,5.6
					l-6.384,202.542c-106.383,14.299-156.735,75.169-179.695,139.585C802.022,2011.484,767.767,2002.913,731.194,2008.494z"/>
			</g>
			
				<linearGradient id="SVGID_00000173141739577978113260000002527257536776610733_" gradientUnits="userSpaceOnUse" x1="-94.0835" y1="1351.7726" x2="117.2365" y2="1911.7712" gradientTransform="matrix(-0.9869 0.1614 0.1614 0.9869 1222.7954 575.3264)">
				<stop  offset="0" style="stop-color:#F9B776"/>
				<stop  offset="1" style="stop-color:#F47960"/>
			</linearGradient>
			<path style="fill:url(#SVGID_00000173141739577978113260000002527257536776610733_);" d="M1542.479,2009.53
				c6.995-3.222,12.101-9.409,14.063-16.857c3.802-14.433,7.04-37.087-8.474-41.289c-23.105-6.257-55.651,40.219-55.651,40.219
				l-14.04,34.09l-16.082,11.357C1479.025,2038.836,1508.686,2026.446,1542.479,2009.53z"/>
			
				<linearGradient id="SVGID_00000168821579149793232510000007752163800018186414_" gradientUnits="userSpaceOnUse" x1="1187.5446" y1="1089.726" x2="1197.756" y2="1504.9968">
				<stop  offset="0" style="stop-color:#53D8FF"/>
				<stop  offset="1" style="stop-color:#3840F7"/>
			</linearGradient>
			<path style="fill:url(#SVGID_00000168821579149793232510000007752163800018186414_);" d="M1085.974,1495.433
				c24.213-6.609,48.414-13.305,72.556-20.185c41.21-11.744,83.108-22.119,123.794-35.566c8.662-2.863,17.311-5.617,26.059-8.2
				c5.245-1.549,11.761-4.177,15.298-8.55c3.85-4.76,2.226-11.961-4.402-12.198c-11.399-0.408-23.195,1.154-34.376,3.099
				c-3.221,0.56-35.079,6.568-34.993,7.16c-0.007-0.053-12.124-83.689-106.75-54.531
				C1029.147,1401.594,1071.812,1502.975,1085.974,1495.433z"/>
			
				<linearGradient id="SVGID_00000150080525482877500480000007801910335489375153_" gradientUnits="userSpaceOnUse" x1="1475.4796" y1="1507.4091" x2="271.2077" y2="4400.6572">
				<stop  offset="0" style="stop-color:#53D8FF"/>
				<stop  offset="1" style="stop-color:#3840F7"/>
			</linearGradient>
			<path style="fill:url(#SVGID_00000150080525482877500480000007801910335489375153_);" d="M1145.693,2312.797
				c-2.358,12.318-85.582,533.253-90.632,802.811c-0.085,4.52-3.184,8.311-7.355,8.934c-10.566,1.581-31.141,3.613-51.091-0.357
				c-2.732-0.543-4.791-2.958-4.963-5.934c-2.908-50.233-26.301-474.951,2.347-674.886c0,0-236.633,534.455-272.502,681.824
				c-0.873,3.585-3.94,5.997-7.388,5.802c-10.135-0.574-31.211-2.531-47.945-9.141c-5.998-2.369-9.415-9.134-7.9-15.799
				c20.04-88.194,160.487-695.83,255.846-829.708L1145.693,2312.797z"/>
			
				<linearGradient id="SVGID_00000154419776878638060780000005976829798659897991_" gradientUnits="userSpaceOnUse" x1="8895.9365" y1="2260.3894" x2="8678.5068" y2="2541.4949" gradientTransform="matrix(1 0 0 1 -7765.9043 0)">
				<stop  offset="0" style="stop-color:#5AB6FF"/>
				<stop  offset="1" style="stop-color:#2F68E3"/>
			</linearGradient>
			<path style="opacity:0.25;fill:url(#SVGID_00000154419776878638060780000005976829798659897991_);" d="M993.998,2435.087
				c-0.784,0-1.568-0.294-2.172-0.886c-1.226-1.198-1.248-3.167-0.049-4.392l31.687-32.402c1.199-1.228,3.166-1.246,4.392-0.048
				c1.226,1.198,1.248,3.167,0.048,4.392l-31.686,32.402C995.61,2434.774,994.804,2435.087,993.998,2435.087z"/>
			
				<linearGradient id="SVGID_00000172414783237666781700000014017947216544011949_" gradientUnits="userSpaceOnUse" x1="1346.9618" y1="1453.9152" x2="142.691" y2="4347.1606">
				<stop  offset="0" style="stop-color:#53D8FF"/>
				<stop  offset="1" style="stop-color:#3840F7"/>
			</linearGradient>
			<path style="fill:url(#SVGID_00000172414783237666781700000014017947216544011949_);" d="M1142.302,2318.342l86.545-204.955
				l14.333-231.263l-176.837-16c-38.789,69.055-78.91,132.526-122.271,182.427c-1.819,2.094-3.128,4.559-3.821,7.244
				l-55.332,214.505L1142.302,2318.342z"/>
			
				<linearGradient id="SVGID_00000119823544348141136140000012221922744746476700_" gradientUnits="userSpaceOnUse" x1="1375.0715" y1="1465.6151" x2="170.8011" y2="4358.8599">
				<stop  offset="0" style="stop-color:#53D8FF"/>
				<stop  offset="1" style="stop-color:#3840F7"/>
			</linearGradient>
			<path style="fill:url(#SVGID_00000119823544348141136140000012221922744746476700_);" d="M1243.179,1882.125
				c18.75-54.265,25.153-110.704,37.778-179.563c-17.634-11.14-23.784-16.383-40.752-12.575
				c-11.574,69.061-23.688,134.457-38.872,194.694L1243.179,1882.125z"/>
			
				<linearGradient id="SVGID_00000154405160157141317540000014816095424009521325_" gradientUnits="userSpaceOnUse" x1="1223.5936" y1="1402.5653" x2="19.3264" y2="4295.8022">
				<stop  offset="0" style="stop-color:#53D8FF"/>
				<stop  offset="1" style="stop-color:#3840F7"/>
			</linearGradient>
			<path style="fill:url(#SVGID_00000154405160157141317540000014816095424009521325_);" d="M1102.294,1869.589
				c-0.26-66.927-1.099-134.712-15.027-203.293c-21.986-4.035-31.469-5.752-46.539,0c16.849,73.063,17.057,144.897,25.614,210.355
				L1102.294,1869.589z"/>
			<g>
				
					<linearGradient id="SVGID_00000057136172856386853960000014034619810189659797_" gradientUnits="userSpaceOnUse" x1="1195.0128" y1="1464.5143" x2="990.1373" y2="2833.6848">
					<stop  offset="0" style="stop-color:#53D8FF"/>
					<stop  offset="1" style="stop-color:#3840F7"/>
				</linearGradient>
				<path style="fill:url(#SVGID_00000057136172856386853960000014034619810189659797_);" d="M582.545,2325.354l1072.386-590.367
					l64.238,105.627L701.66,2521.218c-2.27,1.518-4.574,2.988-6.908,4.407l-35.247,21.436
					c-60.484,36.783-129.619,33.542-154.42-7.239l-29.485-48.484c-24.801-40.781,4.124-103.658,64.608-140.441l35.247-21.436
					C577.788,2328.041,580.154,2326.672,582.545,2325.354z M555.421,2476c16.455,27.058,66.71,26.543,112.247-1.15
					c45.537-27.693,69.112-72.079,52.657-99.137c-16.455-27.058-66.71-26.542-112.247,1.151
					C562.542,2404.559,538.966,2448.942,555.421,2476z"/>
				
					<linearGradient id="SVGID_00000090269011369231881350000017479886581335583115_" gradientUnits="userSpaceOnUse" x1="1889.5527" y1="1568.4415" x2="1684.6771" y2="2937.6125">
					<stop  offset="0" style="stop-color:#53D8FF"/>
					<stop  offset="1" style="stop-color:#3840F7"/>
				</linearGradient>
				<path style="fill:url(#SVGID_00000090269011369231881350000017479886581335583115_);" d="M1979.643,1464.557l-204.519,124.379
					c-14.562,8.855-24.188,23.969-26.058,40.909l-9.583,86.839c-2.735,24.787,11.568,48.306,34.835,57.279l81.512,31.437
					c15.901,6.133,33.749,4.537,48.311-4.318l204.52-124.379c30.849-18.76,70.027,7.401,63.682,42.944
					c-15.178,85.031-66.626,164.436-148.001,213.924c-147.079,89.446-318.001,36.292-404.036-105.179
					c-86.035-141.47-54.604-317.686,92.475-407.131c81.375-49.488,175.546-58.641,258.028-33.002
					C2005.286,1398.975,2010.492,1445.796,1979.643,1464.557z"/>
				
					<linearGradient id="SVGID_00000005984003576269420300000002221602929468429187_" gradientUnits="userSpaceOnUse" x1="3378.8391" y1="-2601.7144" x2="3669.4014" y2="-1640.2175" gradientTransform="matrix(-0.5196 -0.8544 -0.8544 0.5196 695.7816 6120.5117)">
					<stop  offset="0" style="stop-color:#2B3582"/>
					<stop  offset="1" style="stop-color:#150E42"/>
				</linearGradient>
				<path style="fill:url(#SVGID_00000005984003576269420300000002221602929468429187_);" d="M1991.366,1483.832l-204.519,124.379
					c-14.562,8.856-24.188,23.969-26.058,40.909l-9.583,86.838c-2.735,24.786,11.568,48.306,34.834,57.279l81.512,31.437
					c15.902,6.133,33.749,4.538,48.311-4.318l204.519-124.379c30.849-18.76,70.027,7.401,63.682,42.944
					c-15.178,85.031-66.626,164.436-148.001,213.923c-147.079,89.446-318.001,36.292-404.036-105.178
					s-54.604-317.686,92.475-407.131c81.374-49.488,175.546-58.641,258.028-33.002
					C2017.008,1418.25,2022.214,1465.071,1991.366,1483.832z"/>
				
					<linearGradient id="SVGID_00000159441262415487502010000015997660800482483126_" gradientUnits="userSpaceOnUse" x1="3218.9485" y1="-1521.178" x2="3509.52" y2="-559.6502" gradientTransform="matrix(-0.5196 -0.8544 -1.059 0.6441 911.548 5989.7534)">
					<stop  offset="0" style="stop-color:#2B3582"/>
					<stop  offset="1" style="stop-color:#150E42"/>
				</linearGradient>
				<path style="fill:url(#SVGID_00000159441262415487502010000015997660800482483126_);" d="M591.896,2340.729l1072.386-590.367
					l64.238,105.627L711.01,2536.593c-2.269,1.518-4.573,2.988-6.907,4.407l-35.247,21.436
					c-60.484,36.783-129.619,33.542-154.421-7.24l-29.486-48.483c-24.801-40.782,4.125-103.659,64.608-140.442l35.247-21.436
					C587.139,2343.416,589.505,2342.047,591.896,2340.729z M564.771,2491.375c16.455,27.058,66.71,26.543,112.247-1.15
					c45.537-27.693,69.112-72.079,52.657-99.137c-16.455-27.057-66.709-26.542-112.247,1.151
					C571.892,2419.934,548.316,2464.318,564.771,2491.375z"/>
			</g>
			
				<linearGradient id="SVGID_00000057138941396901995240000016971408197375376558_" gradientUnits="userSpaceOnUse" x1="377.0818" y1="2121.9546" x2="617.5596" y2="2469.3108" gradientTransform="matrix(-1 0 0 1 1267.5382 0)">
				<stop  offset="0" style="stop-color:#F9B776"/>
				<stop  offset="1" style="stop-color:#F47960"/>
			</linearGradient>
			<path style="fill:url(#SVGID_00000057138941396901995240000016971408197375376558_);" d="M807.648,2174.095h48.986
				c0,0-39.739,23.832-41.06,48.896c-1.321,25.064,15.777,76.981,23.773,91.114c8.745,15.456-110.926-23.015-68.678-140.01H807.648z
				"/>
		</g>
		<g>
			<g>
				
					<linearGradient id="SVGID_00000088109869035271252810000012426243479788645049_" gradientUnits="userSpaceOnUse" x1="1819.9622" y1="2834.0066" x2="1850.0033" y2="2649.0161">
					<stop  offset="0" style="stop-color:#2B3582"/>
					<stop  offset="1" style="stop-color:#150E42"/>
				</linearGradient>
				<path style="fill:url(#SVGID_00000088109869035271252810000012426243479788645049_);" d="M1968.728,2813.802h-39.978v-105.08
					c0-7.691-5.184-11.521-12.874-11.521h-169.528c-7.691,0-14.155,3.831-14.155,11.521v105.08h-36.646v-105.08
					c0-28.99,21.811-48.168,50.801-48.168h169.528c28.99,0,52.852,19.178,52.852,48.168V2813.802z"/>
			</g>
			
				<linearGradient id="SVGID_00000000213386210597805350000012242665546788282798_" gradientUnits="userSpaceOnUse" x1="1828.9658" y1="2525.417" x2="1828.9658" y2="3108.8853">
				<stop  offset="0" style="stop-color:#C32B78"/>
				<stop  offset="1" style="stop-color:#593092"/>
			</linearGradient>
			<path style="fill:url(#SVGID_00000000213386210597805350000012242665546788282798_);" d="M1513.515,2817.151l17.355,321.347
				c1.597,29.57,25.952,52.762,55.565,52.931l474.397,2.69c29.205,0.166,53.628-22.128,56.084-51.23l27.501-325.738H1513.515z"/>
			
				<linearGradient id="SVGID_00000012464977422170837690000010534620489131709589_" gradientUnits="userSpaceOnUse" x1="1839.6718" y1="2764.9841" x2="1736.4679" y2="3594.1794">
				<stop  offset="0" style="stop-color:#C32B78"/>
				<stop  offset="1" style="stop-color:#593092"/>
			</linearGradient>
			<path style="fill:url(#SVGID_00000012464977422170837690000010534620489131709589_);" d="M2181.943,2787.303
				c0-9.284-7.526-16.809-16.81-16.809h-662.66c-9.284,0-16.81,7.526-16.81,16.809v49.668c0,9.284,7.526,16.81,16.81,16.81h662.66
				c9.284,0,16.81-7.526,16.81-16.81V2787.303z"/>
			<g>
				
					<linearGradient id="SVGID_00000060710353079984420790000004620011333957446319_" gradientUnits="userSpaceOnUse" x1="1616.2821" y1="2850.5024" x2="1456.3783" y2="2006.0127">
					<stop  offset="0" style="stop-color:#C32B78"/>
					<stop  offset="1" style="stop-color:#593092"/>
				</linearGradient>
				<path style="fill:url(#SVGID_00000060710353079984420790000004620011333957446319_);" d="M1661.612,2890.406
					c-0.62,4.974-4.951,10.015-9.679,10.015h-74.192c-4.728,0-8.479-5.041-8.378-10.015l1.083-51.507
					c0.115-5.66,4.36-8.439,9.48-8.439h80.353c5.12,0,8.693,2.779,7.987,8.439L1661.612,2890.406z"/>
				
					<linearGradient id="SVGID_00000043446804611258639720000018086815642398606490_" gradientUnits="userSpaceOnUse" x1="2106.0659" y1="2764.363" x2="2570.7839" y2="2259.6689">
					<stop  offset="0" style="stop-color:#C32B78"/>
					<stop  offset="1" style="stop-color:#593092"/>
				</linearGradient>
				<path style="fill:url(#SVGID_00000043446804611258639720000018086815642398606490_);" d="M1970.955,2890.406
					c0.62,4.974,4.951,10.015,9.679,10.015h74.192c4.728,0,8.48-5.041,8.378-10.015l-1.083-51.507
					c-0.115-5.66-4.36-8.439-9.48-8.439h-80.353c-5.12,0-8.693,2.779-7.987,8.439L1970.955,2890.406z"/>
			</g>
			<g>
				<path style="fill:#FFFFFF;" d="M1702.293,3150.082c-0.771,0-1.549-0.143-2.294-0.439l-16.513-6.525
					c-2.461-0.969-4.041-3.403-3.924-6.051l0.529-12.08c-4.535-3.421-8.626-7.38-12.207-11.815l-12.081,0.927
					c-2.643,0.205-5.118-1.287-6.175-3.719l-7.073-16.285c-1.057-2.44-0.449-5.279,1.515-7.065l8.921-8.158
					c-0.792-5.638-0.89-11.322-0.291-16.961l-9.197-7.872c-2.014-1.732-2.71-4.543-1.737-7.003l6.52-16.5
					c0.968-2.463,3.349-4.068,6.053-3.924l12.098,0.54c3.421-4.529,7.377-8.61,11.807-12.179l-0.937-12.062
					c-0.207-2.64,1.288-5.125,3.724-6.181l16.296-7.05c2.419-1.054,5.249-0.45,7.045,1.498l8.19,8.942
					c5.641-0.789,11.332-0.88,16.984-0.278l7.868-9.175c1.723-2.019,4.542-2.718,7.018-1.733l16.508,6.523
					c2.468,0.984,4.039,3.414,3.924,6.053l-0.529,12.078c4.535,3.421,8.626,7.38,12.207,11.815l12.081-0.927
					c2.648-0.198,5.119,1.293,6.173,3.719l7.074,16.285c1.056,2.435,0.449,5.271-1.505,7.06l-8.931,8.163
					c0.791,5.636,0.888,11.32,0.291,16.96l9.197,7.873c2.014,1.733,2.71,4.543,1.737,7.003l-6.52,16.501
					c-0.976,2.471-3.418,4.024-6.068,3.922l-12.083-0.54c-3.421,4.527-7.377,8.608-11.807,12.179l0.937,12.062
					c0.207,2.64-1.288,5.126-3.724,6.181l-16.296,7.05c-2.422,1.049-5.253,0.45-7.045-1.498l-8.189-8.942
					c-5.645,0.787-11.336,0.878-16.986,0.278l-7.872,9.179C1705.806,3149.317,1704.071,3150.082,1702.293,3150.082z
					 M1699.423,3141.405c-0.002,0.003-0.003,0.005-0.005,0.007L1699.423,3141.405z M1703.667,3140.346l0.013,0.005
					C1703.675,3140.349,1703.672,3140.348,1703.667,3140.346z M1743.136,3139.723c-0.005,0.002-0.01,0.003-0.013,0.005
					L1743.136,3139.723z M1689.666,3134.814l11.509,4.548l9.666-11.271l2.728,0.403c6.401,0.945,12.888,0.841,19.276-0.314
					l2.712-0.49l10.043,10.966l11.346-4.909l-1.15-14.811l2.217-1.646c5.209-3.867,9.72-8.519,13.404-13.829l1.573-2.266
					l14.847,0.664l4.537-11.483l-11.289-9.663l0.402-2.728c0.939-6.391,0.826-12.87-0.332-19.259l-0.493-2.717l10.964-10.022
					l-4.924-11.338l-14.827,1.135l-1.645-2.209c-3.878-5.214-8.538-9.724-13.855-13.407l-2.266-1.571l0.649-14.834l-11.51-4.547
					l-9.664,11.27l-2.728-0.404c-6.395-0.944-12.88-0.839-19.278,0.314l-2.712,0.49l-10.042-10.966l-11.346,4.909l1.15,14.813
					l-2.217,1.646c-5.209,3.865-9.718,8.516-13.404,13.827l-1.573,2.266l-14.845-0.664l-4.538,11.483l11.289,9.663l-0.402,2.73
					c-0.939,6.386-0.828,12.865,0.332,19.257l0.493,2.717l-10.964,10.024l4.924,11.338l14.827-1.137l1.645,2.209
					c3.878,5.213,8.539,9.724,13.855,13.407l2.266,1.571L1689.666,3134.814z M1655.042,3104.134c-0.003,0-0.008,0-0.013,0H1655.042z
					 M1790.513,3101.979h0.016C1790.525,3101.979,1790.52,3101.979,1790.513,3101.979z M1650.816,3094.403l-0.01,0.01
					C1650.809,3094.41,1650.813,3094.406,1650.816,3094.403z M1701.302,2998.849l-0.013,0.005
					C1701.294,2998.853,1701.299,2998.851,1701.302,2998.849z M1740.743,2998.226c0.008,0.003,0.015,0.006,0.021,0.008
					L1740.743,2998.226z M1745.006,2997.166l-0.006,0.008C1745.003,2997.17,1745.005,2997.167,1745.006,2997.166z M1741.21,2993.917
					h0.033H1741.21z M1721.859,3117.283c-5.846,0-11.789-1.079-17.549-3.354c-11.89-4.698-21.24-13.739-26.328-25.458
					c-5.09-11.722-5.308-24.718-0.615-36.594c4.693-11.877,13.736-21.212,25.464-26.288c11.724-5.07,24.731-5.279,36.619-0.582
					c3.171,1.252,6.206,2.84,9.023,4.721c2.295,1.531,2.915,4.635,1.383,6.93c-1.531,2.295-4.636,2.917-6.93,1.383
					c-2.23-1.487-4.635-2.744-7.148-3.738c-9.412-3.72-19.703-3.554-28.978,0.46c-9.276,4.013-16.428,11.395-20.139,20.788
					c-3.712,9.392-3.538,19.67,0.486,28.939c4.028,9.272,11.426,16.427,20.835,20.145c19.413,7.67,41.452-1.858,49.115-21.25
					c2.52-6.377,3.262-13.301,2.146-20.021c-0.451-2.723,1.391-5.297,4.112-5.749c2.723-0.452,5.297,1.391,5.749,4.112
					c1.41,8.508,0.473,17.267-2.712,25.331C1758.978,3105.819,1740.925,3117.283,1721.859,3117.283z"/>
			</g>
			<g>
				<path style="fill:#FFFFFF;" d="M1908.403,3121.875c-0.189,0-0.377-0.008-0.569-0.024l-24.906-2.156
					c-2.848-0.249-5.23-2.277-5.929-5.048l-4.431-17.586c-8.067-2.899-15.672-6.842-22.666-11.756l-16.893,6.5
					c-2.674,1.02-5.698,0.246-7.541-1.939l-16.106-19.135c-1.843-2.185-2.095-5.305-0.628-7.761l9.285-15.542
					c-3.649-7.732-6.238-15.895-7.719-24.337l-16.573-7.367c-2.609-1.155-4.203-3.849-3.961-6.7l2.123-24.903
					c0.242-2.853,2.272-5.24,5.051-5.936l17.567-4.408c2.889-8.065,6.821-15.662,11.72-22.647l-6.52-16.909
					c-1.031-2.666-0.254-5.698,1.936-7.543l19.109-16.086c2.193-1.841,5.316-2.094,7.771-0.62l15.543,9.305
					c7.72-3.637,15.878-6.216,24.316-7.686l7.34-16.558c1.155-2.613,3.842-4.223,6.7-3.966l24.908,2.155
					c2.848,0.249,5.23,2.277,5.929,5.048l4.431,17.586c8.067,2.899,15.672,6.842,22.667,11.756l16.895-6.502
					c2.666-1.02,5.697-0.244,7.538,1.942l16.107,19.133c1.84,2.19,2.092,5.306,0.631,7.758l-9.288,15.545
					c3.649,7.73,6.237,15.895,7.719,24.337l16.573,7.366c2.614,1.167,4.203,3.859,3.961,6.702l-2.123,24.903
					c-0.242,2.853-2.272,5.24-5.051,5.936l-17.567,4.408c-2.889,8.062-6.821,15.66-11.72,22.647l6.52,16.91
					c1.03,2.677,0.247,5.708-1.942,7.548l-19.102,16.082c-2.191,1.846-5.313,2.095-7.771,0.62l-15.543-9.305
					c-7.72,3.637-15.878,6.216-24.316,7.686l-7.34,16.56C1913.454,3120.325,1911.037,3121.875,1908.403,3121.875z
					 M1886.119,3109.938l20.231,1.752l8.607-19.42l2.734-0.395c9.262-1.342,18.172-4.158,26.479-8.373l2.461-1.248l18.23,10.915
					l15.519-13.066l-7.644-19.825l1.648-2.211c5.568-7.47,9.863-15.768,12.765-24.666l0.857-2.625l20.602-5.17l1.724-20.235
					l-19.428-8.636l-0.399-2.725c-1.352-9.266-4.181-18.182-8.405-26.501l-1.249-2.459l10.891-18.222l-13.093-15.552l-19.81,7.623
					l-2.211-1.649c-7.476-5.581-15.779-9.889-24.679-12.801l-2.619-0.857l-5.196-20.617l-20.231-1.752l-8.608,19.419l-2.733,0.395
					c-9.262,1.342-18.172,4.158-26.479,8.373l-2.461,1.248l-18.23-10.915l-15.519,13.066l7.644,19.825l-1.648,2.21
					c-5.568,7.467-9.863,15.764-12.765,24.666l-0.857,2.625l-20.602,5.17l-1.724,20.234l19.428,8.636l0.399,2.725
					c1.352,9.264,4.179,18.18,8.403,26.5l1.249,2.459l-10.889,18.222l13.092,15.551l19.812-7.623l2.211,1.649
					c7.476,5.581,15.779,9.889,24.679,12.801l2.619,0.857L1886.119,3109.938z M1797.78,3006.589l0.008,0.003
					C1797.785,3006.592,1797.783,3006.591,1797.78,3006.589z M1904.725,3071.735c-18.627,0-37.141-7.907-50.057-23.25
					c-23.202-27.563-19.681-68.842,7.849-92.016c27.525-23.174,68.8-19.607,92.006,7.959c2.998,3.559,5.617,7.436,7.784,11.52
					c1.295,2.437,0.368,5.462-2.071,6.756c-2.443,1.296-5.466,0.366-6.756-2.071c-1.838-3.462-4.06-6.748-6.603-9.77
					c-19.651-23.343-54.607-26.374-77.925-6.749c-23.312,19.626-26.291,54.587-6.639,77.935
					c19.654,23.345,54.61,26.374,77.925,6.749c7.665-6.455,13.425-14.847,16.657-24.272c0.895-2.609,3.727-4.005,6.349-3.105
					c2.609,0.896,4,3.738,3.105,6.349c-3.82,11.136-10.624,21.053-19.675,28.674
					C1934.47,3066.719,1919.563,3071.735,1904.725,3071.735z"/>
			</g>
		</g>
	</g>
</g>
</svg>
